<svg width="96" height="30" viewBox="0 0 96 30" fill="none" xmlns="http://www.w3.org/2000/svg">
<path d="M2.65625 29.625H2.16797C1.52995 29.5859 1.00911 29.3581 0.605469 28.9414C0.201823 28.5117 0 27.9844 0 27.3594L0.625 3.14062C0.651042 2.56771 0.846354 2.08594 1.21094 1.69531C1.58854 1.29167 2.0638 1.05729 2.63672 0.992188C3.13151 0.953125 3.61328 0.933594 4.08203 0.933594C6.59505 0.933594 8.78255 1.54557 10.6445 2.76953C12.5195 3.98047 13.6328 5.69271 13.9844 7.90625C14.0234 8.23177 14.043 8.55078 14.043 8.86328C14.043 10.8685 13.1836 12.7044 11.4648 14.3711L11.7188 14.5078C14.3359 16.1354 15.651 18.3229 15.6641 21.0703C15.5599 23.6224 14.3034 25.7188 11.8945 27.3594C9.64193 28.8698 6.5625 29.625 2.65625 29.625ZM4.82422 12.8281C6.62109 12.3984 7.89062 11.7734 8.63281 10.9531C9.28385 10.237 9.60938 9.55339 9.60938 8.90234C9.60938 8.08203 9.22526 7.32031 8.45703 6.61719C7.77995 6.00521 6.73177 5.60156 5.3125 5.40625L5.01953 5.38672L4.82422 12.8281ZM4.6875 25.1328C7.94271 24.7422 9.98698 23.7982 10.8203 22.3008C11.0807 21.832 11.2109 21.3828 11.2109 20.9531C11.2109 20.0417 10.7161 19.2214 9.72656 18.4922C8.75 17.75 7.26562 17.3789 5.27344 17.3789L4.70703 17.3984L4.51172 25.1328H4.6875ZM19.5312 28.5703C18.9062 28.5443 18.3854 28.3229 17.9688 27.9062C17.5521 27.4896 17.3438 26.9622 17.3438 26.3242L17.6367 3.78516C17.6497 3.16016 17.8711 2.63932 18.3008 2.22266C18.7435 1.80599 19.2969 1.59766 19.9609 1.59766L20.0195 1.61719L29.8047 1.48047C30.4427 1.48047 30.9701 1.6888 31.3867 2.10547C31.8164 2.50911 32.0443 3.02344 32.0703 3.64844C32.0573 4.28646 31.8424 4.82031 31.4258 5.25C31.0221 5.66667 30.5013 5.88151 29.8633 5.89453L22.0508 6.01172L21.9531 13.0234L28.8672 13.3945C29.5052 13.4466 30.013 13.6875 30.3906 14.1172C30.7812 14.5469 30.9766 15.0612 30.9766 15.6602C30.9766 16.2721 30.7292 16.7995 30.2344 17.2422C29.8177 17.6198 29.3229 17.8086 28.75 17.8086L21.8945 17.4375L21.8164 24.0195L28.457 23.668C29.0299 23.668 29.5312 23.8568 29.9609 24.2344C30.4427 24.6771 30.6836 25.2044 30.6836 25.8164C30.6836 26.4154 30.4883 26.9297 30.0977 27.3594C29.7201 27.7891 29.2122 28.0299 28.5742 28.082L19.5312 28.5703ZM36.1719 29.5273C35.9245 29.5273 35.6771 29.4883 35.4297 29.4102C34.8438 29.1888 34.4206 28.8177 34.1602 28.2969C34.0039 27.9844 33.9258 27.6589 33.9258 27.3203C33.9258 27.0859 33.9648 26.8451 34.043 26.5977L36.2109 20.0938C35.612 19.9635 35.1497 19.6641 34.8242 19.1953C34.5378 18.8177 34.3945 18.388 34.3945 17.9062C34.3945 17.1641 34.694 16.5781 35.293 16.1484C35.6836 15.849 36.1328 15.6992 36.6406 15.6992C36.7578 15.6992 37.0898 15.7383 37.6367 15.8164C39.4466 10.3216 41.1133 5.6276 42.6367 1.73438C43.0404 0.809896 43.724 0.347656 44.6875 0.347656C45.7943 0.347656 46.5169 0.901042 46.8555 2.00781C50.8138 17.3854 52.793 25.1784 52.793 25.3867C52.793 25.7773 52.6628 26.1875 52.4023 26.6172C52.1549 27.0339 51.7253 27.3268 51.1133 27.4961C50.931 27.5352 50.7487 27.5547 50.5664 27.5547C50.1628 27.5547 49.7461 27.431 49.3164 27.1836C48.8867 26.9232 48.5872 26.4935 48.418 25.8945L47.3047 21.6367C47.1615 21.6367 44.9544 21.3307 40.6836 20.7188C40.0846 22.5677 39.2773 24.9961 38.2617 28.0039C38.0404 28.6029 37.6628 29.0326 37.1289 29.293C36.8164 29.4492 36.4974 29.5273 36.1719 29.5273ZM46.1328 17.0273L44.3164 9.99609C43.5872 12.0664 42.8516 14.2214 42.1094 16.4609L46.1328 17.0273ZM61.2695 29.7422C61.0742 29.7422 60.8789 29.7161 60.6836 29.6641C59.9544 29.4297 59.4206 28.9805 59.082 28.3164C58.3789 26.8451 57.4479 23.5898 56.2891 18.5508C55.1823 13.7461 54.2318 9.29948 53.4375 5.21094C53.4115 5.06771 53.3984 4.92448 53.3984 4.78125C53.3984 4.33854 53.5417 3.90234 53.8281 3.47266C54.1276 3.04297 54.5833 2.75651 55.1953 2.61328L55.5859 2.57422C56.0547 2.57422 56.5039 2.72396 56.9336 3.02344C57.3763 3.3099 57.6628 3.75911 57.793 4.37109C58.5742 8.40755 59.5117 12.7956 60.6055 17.5352C60.918 18.9544 61.237 20.276 61.5625 21.5L61.6211 21.3828C63.6784 15.7969 65.7878 9.52083 67.9492 2.55469C68.1445 1.96875 68.5026 1.53255 69.0234 1.24609C69.349 1.07682 69.6875 0.992188 70.0391 0.992188C70.2604 0.992188 70.4883 1.02474 70.7227 1.08984C71.3216 1.29818 71.7578 1.66276 72.0312 2.18359C72.2005 2.50911 72.2852 2.84766 72.2852 3.19922C72.2852 3.40755 72.2526 3.62891 72.1875 3.86328C70.2604 10.0742 68.4896 15.4323 66.875 19.9375C65.1953 24.5729 64.0169 27.431 63.3398 28.5117V28.5312C63.3138 28.5833 63.2292 28.7005 63.0859 28.8828C62.6042 29.4557 61.9987 29.7422 61.2695 29.7422ZM76.3086 29.5078C75.6836 29.4818 75.1628 29.2604 74.7461 28.8438C74.3294 28.4271 74.1146 27.9062 74.1016 27.2812L74.375 3.14062C74.401 2.51562 74.6224 2.0013 75.0391 1.59766C75.4688 1.18099 75.9961 0.966146 76.6211 0.953125C77.2591 0.979167 77.7799 1.20703 78.1836 1.63672C78.6003 2.05339 78.8151 2.57422 78.8281 3.19922L78.5547 27.3203C78.5286 27.9453 78.3008 28.4661 77.8711 28.8828C77.4544 29.2865 76.9336 29.4948 76.3086 29.5078ZM88.2031 28.8828C87.5651 28.8828 86.6406 28.7526 85.4297 28.4922C84.2318 28.2188 82.806 27.2878 81.1523 25.6992C80.7227 25.2435 80.5078 24.7227 80.5078 24.1367C80.5078 23.5508 80.7227 23.0299 81.1523 22.5742C81.6081 22.1445 82.1354 21.9297 82.7344 21.9297C83.3203 21.9297 83.8411 22.1445 84.2969 22.5742C85.612 23.8242 86.9076 24.4492 88.1836 24.4492C88.9518 24.4492 89.6419 24.2018 90.2539 23.707C90.944 23.1471 91.3151 22.2487 91.3672 21.0117L91.2305 20.5039C91.0221 19.918 90.651 19.3971 90.1172 18.9414C89.362 18.2904 88.3659 17.6328 87.1289 16.9688L86.9336 16.8711C84.4336 15.5951 82.6953 14.1758 81.7188 12.6133C81.0417 11.5456 80.7031 10.2826 80.7031 8.82422C80.7031 7.41797 81.0677 6.11589 81.7969 4.91797C82.5391 3.70703 83.6393 2.78255 85.0977 2.14453C86.2044 1.67578 87.3633 1.44141 88.5742 1.44141C88.8867 1.44141 89.5182 1.48698 90.4688 1.57812C91.4193 1.65625 92.5911 2.17708 93.9844 3.14062C94.5964 3.60938 94.9023 4.20833 94.9023 4.9375C94.9023 5.38021 94.7656 5.8099 94.4922 6.22656C94.0365 6.83854 93.4375 7.14453 92.6953 7.14453C92.2396 7.14453 91.8034 7.00781 91.3867 6.73438C90.5143 6.14844 89.5768 5.85547 88.5742 5.85547C87.9753 5.85547 87.4154 5.96615 86.8945 6.1875C86.2956 6.44792 85.8398 6.83854 85.5273 7.35938C85.2799 7.75 85.1562 8.23177 85.1562 8.80469C85.1562 8.98698 85.1693 9.18229 85.1953 9.39062C85.2734 10.0547 85.638 10.6602 86.2891 11.207C87.0182 11.806 88.0208 12.444 89.2969 13.1211C90.9245 14.0065 92.2005 14.8529 93.125 15.6602C94.5703 16.9622 95.4557 18.5443 95.7812 20.4062C95.7943 20.5234 95.8008 20.7513 95.8008 21.0898C95.8008 22.7435 95.3776 24.2148 94.5312 25.5039C93.6979 26.793 92.5456 27.737 91.0742 28.3359C90.1628 28.7005 89.2057 28.8828 88.2031 28.8828Z" fill="#1A1A1A"/>
</svg>
