<svg width="174" height="174" viewBox="0 0 174 174" fill="none" xmlns="http://www.w3.org/2000/svg">
<path d="M124.723 108.777V91.7986L110.911 99.7645V116.757L124.723 108.777Z" fill="#EFE564"/>
<path d="M124.723 65.2229L110.395 56.9443L87 70.4565L63.6052 56.9443L49.2773 65.2229V80.2712L73.0664 94.0145V122.521L87 130.568L100.934 122.521V94.0145L124.723 80.2712V65.2229ZM148.648 66.4599V51.4117L134.32 43.1331L120.373 51.1806L134.7 59.4592V74.5074L148.648 66.4599ZM39.2995 74.5074V59.4592L53.6273 51.1806L39.6802 43.1331L25.3523 51.4117V66.4599L39.2995 74.5074Z" fill="#EFE564"/>
<path d="M49.2773 108.777L63.0886 116.757V99.7646L49.2773 91.7987V108.777ZM100.934 134.048L87 142.096L73.0664 134.048V150.143L87 158.191L100.934 150.143V134.048ZM100.417 51.1806L87 43.4321L73.583 51.1806L87 58.929L100.417 51.1806ZM134.7 86.0349V114.541L110.911 128.284V144.379L148.648 122.589V77.9874L134.7 86.0349Z" fill="#EFE564"/>
<path d="M63.0886 128.284L39.2995 114.541V86.0349L25.3523 77.9874V122.588L63.0886 144.379V128.284ZM63.6052 45.4168L87 31.9182L110.395 45.4168L124.342 37.3693L87 15.8096L49.658 37.3693L63.6052 45.4168Z" fill="#EFE564"/>
</svg>
