<svg width="416" height="100" viewBox="0 0 416 100" fill="none" xmlns="http://www.w3.org/2000/svg">
<rect width="416" height="100" rx="20" fill="white"/>
<path d="M76.7989 56.2476C75.6831 56.9295 74.3813 57.0535 73.3894 56.4956C72.1496 55.7517 71.4058 54.078 71.4058 51.7844V44.7795C71.4058 41.4321 70.104 39.0145 67.8724 38.3946C64.091 37.2788 61.2395 41.928 60.1856 43.6637L53.4908 54.3879V41.1841C53.4288 38.1466 52.4369 36.3489 50.5772 35.791C49.3374 35.4191 47.4778 35.6051 45.6801 38.3326L30.7405 62.2606C28.7569 58.4793 27.703 54.264 27.703 49.9867C27.703 35.5431 39.2951 23.827 53.4908 23.827C67.6864 23.827 79.2785 35.5431 79.2785 49.9867V50.0487V50.1107C79.4024 52.9002 78.5346 55.1318 76.7989 56.2476ZM84.9815 49.9867V49.9247V49.8627C84.9195 32.3196 70.7859 18 53.4908 18C36.1336 18 22 32.3196 22 49.9867C22 67.5917 36.1336 81.9733 53.4908 81.9733C61.4874 81.9733 69.0502 78.9358 74.8772 73.4188C76.055 72.303 76.117 70.5053 75.0012 69.3275C73.9473 68.1497 72.1496 68.0877 70.9718 69.1415C70.9718 69.1415 70.9718 69.1415 70.9099 69.2035C66.1986 73.6667 59.8757 76.2083 53.3668 76.2083C45.742 76.2083 38.9232 72.8609 34.212 67.5297L47.6637 45.9573V55.9377C47.6637 60.7109 49.5234 62.2606 51.0732 62.6946C52.6229 63.1285 54.9785 62.8185 57.5201 58.7892L64.8969 46.8252C65.1448 46.4533 65.3308 46.0813 65.5787 45.8334V51.9084C65.5787 56.3716 67.3764 59.967 70.4759 61.7027C73.2655 63.3144 76.7989 63.1285 79.7124 61.3308C83.3078 58.9752 85.2295 54.8839 84.9815 49.9867ZM128.87 39.0765C129.614 39.5104 130.296 40.5642 130.296 41.4941C130.296 42.9818 129.056 44.2216 127.63 44.2216C127.258 44.2216 126.949 44.0977 126.639 44.0357C124.965 42.7959 122.857 41.99 120.626 41.99C115.356 41.99 111.761 46.2673 111.761 51.5984C111.761 56.9295 115.418 61.1448 120.626 61.1448C123.229 61.1448 125.585 60.091 127.32 58.4173C127.754 58.1073 128.312 57.9213 128.87 57.9213C130.296 57.9213 131.412 59.0372 131.412 60.4629C131.412 61.3928 130.854 62.1986 130.172 62.6326C127.63 64.8022 124.221 66.228 120.688 66.228C112.629 66.228 106.058 59.5951 106.058 51.4124C106.058 43.2298 112.629 36.5969 120.688 36.5969C123.663 36.5349 126.515 37.4648 128.87 39.0765ZM143.624 45.2755C149.141 45.2755 153.728 49.9247 153.728 55.6897C153.728 61.3928 149.079 66.29 143.624 66.29C137.859 66.29 133.085 61.4548 133.085 55.6897C133.085 49.9247 137.859 45.2755 143.624 45.2755ZM143.562 61.1448C145.979 61.1448 148.025 58.8512 148.025 55.7517C148.025 52.6522 145.979 50.6686 143.562 50.6686C140.958 50.6686 138.789 52.5902 138.789 55.7517C138.789 58.7892 140.958 61.1448 143.562 61.1448ZM157.199 63.0665V48.4369C157.199 46.8252 158.439 45.5234 160.051 45.5234C161.601 45.5234 162.903 46.8252 162.903 48.4369V63.0665C162.903 64.6782 161.601 65.98 160.051 65.98C158.501 65.98 157.199 64.6162 157.199 63.0665ZM156.766 40.0063C156.766 38.0847 158.253 36.5969 160.051 36.5969C161.911 36.5969 163.398 38.1466 163.398 40.0063C163.398 41.866 161.911 43.3538 160.051 43.3538C158.191 43.2918 156.766 41.804 156.766 40.0063ZM173.813 55.1318V63.0665C173.813 64.6782 172.511 65.98 170.961 65.98C169.411 65.98 168.11 64.6782 168.11 63.0665V47.755C168.11 46.5152 169.101 45.5234 170.341 45.5234C171.581 45.5234 172.511 46.5772 172.511 47.755C174.805 45.5854 176.85 45.2755 178.772 45.2755C184.475 45.2755 187.016 49.5528 187.016 54.4499V63.0665C187.016 64.6782 185.715 65.98 184.165 65.98C182.615 65.98 181.313 64.6782 181.313 63.0665V55.1318C181.313 52.6522 181.004 50.5446 177.408 50.5446C174.867 50.5446 173.813 52.6522 173.813 55.1318ZM205.489 58.1693C204.808 58.1693 204.374 57.8594 204.002 57.4254L197.369 50.2346V63.0665C197.369 64.6782 196.067 65.98 194.517 65.98C192.968 65.98 191.666 64.6782 191.666 63.0665V37.6507C191.852 37.2168 192.286 36.9069 192.72 36.9069C193.215 36.9069 193.649 37.3408 193.959 37.6507L204.56 49.5527C204.87 49.9247 205.241 50.1107 205.489 50.1107C205.675 50.1107 206.109 49.9247 206.419 49.5527L217.019 37.6507C217.329 37.3408 217.701 36.9069 218.259 36.9069C218.755 36.9069 219.189 37.2168 219.313 37.6507V63.0665C219.313 64.6782 218.073 65.98 216.462 65.98C214.912 65.98 213.61 64.6782 213.61 63.0665V50.2346L206.977 57.4254C206.481 57.8594 206.047 58.1693 205.489 58.1693ZM232.889 61.1448C235.43 61.1448 237.6 58.8512 237.6 55.7517C237.6 52.6522 235.368 50.6066 232.889 50.6066C230.409 50.6066 228.364 52.7142 228.364 55.7517C228.364 58.7272 230.347 61.1448 232.889 61.1448ZM238.964 63.7484L238.84 63.0665C237.724 65.2361 234.191 66.228 231.959 66.228C226.628 66.228 222.661 61.3928 222.661 55.6277C222.661 49.9247 226.69 45.2135 232.269 45.2135C233.199 45.2135 236.422 45.4614 238.902 48.3749L239.026 47.6931C239.026 46.4533 239.956 45.4614 241.195 45.4614C242.435 45.4614 243.427 46.5152 243.427 47.6931V63.6864C243.427 64.9262 242.435 65.918 241.195 65.918C239.894 65.98 238.964 64.9262 238.964 63.7484ZM259.111 50.5446H258.491C254.895 50.7305 254.213 52.7762 254.213 55.1318V63.0665C254.213 64.6782 252.912 65.98 251.362 65.98C249.812 65.98 248.51 64.6782 248.51 63.0665V47.755C248.51 46.5152 249.502 45.5234 250.742 45.5234C251.982 45.5234 252.912 46.5772 252.912 47.755C255.019 45.7714 256.755 45.3374 258.491 45.2755H259.049C260.412 45.2755 261.652 46.4533 261.652 47.941C261.714 49.3048 260.474 50.5446 259.111 50.5446ZM281.117 61.7027C281.365 62.1366 281.551 62.5706 281.551 63.0665C281.551 64.5543 280.187 65.918 278.699 65.918C277.707 65.918 276.84 65.1741 276.158 64.3063L269.587 56.6815V63.0045C269.587 64.6162 268.285 65.918 266.735 65.918C265.185 65.918 263.884 64.6162 263.884 63.0045V39.7584C263.884 38.1466 265.123 36.8449 266.735 36.8449C268.347 36.8449 269.587 38.1466 269.587 39.7584V54.264L276.158 47.0112C276.84 46.2673 277.645 45.4614 278.637 45.4614C280.063 45.4614 281.365 46.7632 281.365 48.251C281.365 48.6849 281.241 49.1808 280.993 49.5527L275.786 55.2558L281.117 61.7027ZM292.275 50.6066C290.725 50.6066 288.184 51.4124 288.184 53.83H296.428C296.366 51.4124 293.763 50.6066 292.275 50.6066ZM299.714 57.4874H288.184C288.184 60.8969 291.469 61.4548 292.895 61.4548C293.949 61.4548 295.436 61.2688 296.614 60.7109C296.986 60.4629 297.544 60.277 298.102 60.277C299.342 60.277 300.396 61.3308 300.396 62.6326C300.396 63.5004 299.838 64.2443 299.156 64.6782C297.42 65.98 295.126 66.29 292.957 66.29C287.192 66.29 282.419 63.1905 282.419 55.9377C282.419 50.2346 285.332 45.2755 292.151 45.2755C297.668 45.2755 301.821 48.8709 301.945 55.2558C301.945 56.4336 300.954 57.4874 299.714 57.4874ZM315.583 66.228H314.033C309.694 66.228 307.152 64.3063 307.152 57.5494V50.5446H305.665C304.301 50.5446 303.123 49.3048 303.123 47.941C303.123 46.4533 304.363 45.2755 305.665 45.2755H307.152V39.8824C307.152 38.2706 308.392 36.9688 310.004 36.9688C311.554 36.9688 312.856 38.2706 312.856 39.8824V45.2755H315.211C316.575 45.2755 317.753 46.4533 317.753 47.941C317.753 49.3048 316.513 50.5446 315.211 50.5446H312.856V56.4336C312.856 60.3389 313.042 61.1448 314.777 61.1448H315.583C316.947 61.1448 318.125 62.2606 318.125 63.6864C318.125 65.0502 316.947 66.228 315.583 66.228ZM343.168 39.0765C343.912 39.5104 344.594 40.5642 344.594 41.4941C344.594 42.9818 343.354 44.2216 341.929 44.2216C341.557 44.2216 341.247 44.0977 340.937 44.0357C339.263 42.7959 337.155 41.99 334.924 41.99C329.655 41.99 326.059 46.2673 326.059 51.5984C326.059 56.9295 329.717 61.1448 334.924 61.1448C337.527 61.1448 339.883 60.091 341.619 58.4173C342.053 58.1073 342.611 57.9213 343.168 57.9213C344.594 57.9213 345.71 59.0372 345.71 60.4629C345.71 61.3928 345.152 62.1986 344.47 62.6326C341.929 64.8022 338.519 66.228 334.986 66.228C326.927 66.228 320.356 59.5951 320.356 51.4124C320.356 43.2298 326.927 36.5969 334.986 36.5969C337.961 36.5349 340.875 37.4648 343.168 39.0765ZM357.612 61.1448C360.154 61.1448 362.323 58.8512 362.323 55.7517C362.323 52.6522 360.092 50.6066 357.612 50.6066C355.07 50.6066 353.087 52.7142 353.087 55.7517C353.087 58.7272 355.132 61.1448 357.612 61.1448ZM363.687 63.7484L363.563 63.0665C362.447 65.2361 358.914 66.228 356.682 66.228C351.351 66.228 347.384 61.3928 347.384 55.6277C347.384 49.9247 351.413 45.2135 356.992 45.2135C357.922 45.2135 361.145 45.4614 363.625 48.3749L363.749 47.6931C363.749 46.4533 364.679 45.4614 365.919 45.4614C367.158 45.4614 368.15 46.5152 368.15 47.6931V63.6864C368.15 64.9262 367.158 65.918 365.919 65.918C364.617 65.98 363.687 64.9262 363.687 63.7484ZM383.71 61.1448C386.251 61.1448 388.235 58.7272 388.235 55.7517C388.235 52.6522 386.189 50.6066 383.71 50.6066C381.168 50.6066 378.999 52.6522 378.999 55.7517C378.999 58.8512 381.168 61.1448 383.71 61.1448ZM378.999 64.5542V71.807C378.999 73.4188 377.697 74.7206 376.147 74.7206C374.597 74.7206 373.295 73.4188 373.295 71.807V47.755C373.295 46.5152 374.287 45.5234 375.527 45.5234C376.767 45.5234 377.697 46.5772 377.697 48.003C379.804 45.8334 382.408 45.2755 384.392 45.2755C389.909 45.2755 394 49.9247 394 55.6897C394 61.3928 390.095 66.29 384.702 66.29C383.028 66.228 380.548 65.7321 378.999 64.5542Z" fill="black"/>
</svg>
