<svg width="416" height="100" viewBox="0 0 416 100" fill="none" xmlns="http://www.w3.org/2000/svg">
<rect width="416" height="100" rx="20" fill="white"/>
<path d="M99.3408 34.7253C99.2324 34.4124 99.1104 34.1162 98.9681 33.8369C99.1579 34.1532 99.2798 34.4527 99.3408 34.7253Z" fill="black"/>
<path d="M164.73 43.3542C163.738 39.5078 161.238 36.6945 156.325 36.6945C149.102 36.6945 146.08 43.0244 146.08 49.4518C146.08 55.8793 149.102 62.2091 156.325 62.2091C161.566 62.2091 164.446 58.3156 164.917 53.4395H170.676C170.205 61.4587 164.49 66.9944 156.322 66.9944C146.219 66.9944 140.175 59.0223 140.175 49.4552C140.175 39.8881 146.219 31.916 156.322 31.916C163.924 31.9631 169.921 36.1359 170.629 43.3575H164.73V43.3542Z" fill="black"/>
<path d="M174.176 54.0449C174.176 46.6348 178.661 41.2876 186.497 41.2876C194.334 41.2876 198.819 46.6348 198.819 54.0449C198.819 61.5021 194.334 66.8493 186.497 66.8493C178.661 66.8493 174.176 61.5021 174.176 54.0449ZM193.439 54.0449C193.439 49.8721 191.315 45.5109 186.497 45.5109C181.68 45.5109 179.556 49.8721 179.556 54.0449C179.556 58.2648 181.68 62.626 186.497 62.626C191.315 62.6294 193.439 58.2648 193.439 54.0449Z" fill="black"/>
<path d="M203.45 32.7065H208.834V37.7711H203.45V32.7065ZM203.45 41.9472H208.834V66.1932H203.45V41.9472Z" fill="black"/>
<path d="M214.688 41.9472H219.787V45.5109L219.881 45.6051C221.487 42.9332 224.272 41.291 227.484 41.291C232.772 41.291 236.123 44.1043 236.123 49.5457V66.1931H230.74V50.9524C230.645 47.1531 229.134 45.5109 225.969 45.5109C222.382 45.5109 220.068 48.3242 220.068 51.8879V66.1931H214.688V41.9472Z" fill="black"/>
<path d="M271.96 66.1934H268.183L267.285 62.2528C264.121 65.8165 261.241 66.9909 257.135 66.9909C247.032 66.9909 240.988 59.0189 240.988 49.4518C240.988 39.8846 247.032 31.9126 257.135 31.9126C264.5 31.9126 270.686 35.8061 271.584 43.3541H265.825C265.259 38.9458 261.386 36.6945 257.138 36.6945C249.915 36.6945 246.893 43.0243 246.893 49.4518C246.893 55.8792 249.915 62.2091 257.138 62.2091C263.182 62.3033 266.485 58.6925 266.58 53.0155H257.609V48.56H271.963V66.1934H271.96Z" fill="black"/>
<path d="M281.829 55.452C281.829 59.2512 283.906 62.6265 288.391 62.6265C291.508 62.6265 293.395 61.2669 294.34 58.5916H299.439C298.26 63.8918 293.727 66.8464 288.391 66.8464C280.741 66.8464 276.446 61.5462 276.446 54.0891C276.446 47.1939 280.979 41.2847 288.249 41.2847C295.946 41.2847 300.665 48.1799 299.768 55.4486H281.829V55.452ZM294.388 51.9354C294.198 48.5601 291.884 45.5113 288.249 45.5113C284.519 45.5113 281.968 48.3246 281.829 51.9354H294.388Z" fill="black"/>
<path d="M320.356 50.0606C319.932 47.106 317.757 45.5109 314.786 45.5109C312.001 45.5109 308.082 46.9647 308.082 54.3276C308.082 58.3624 309.877 62.6294 314.549 62.6294C317.666 62.6294 319.838 60.5666 320.356 57.0938H325.739C324.747 63.3799 320.83 66.8493 314.549 66.8493C306.899 66.8493 302.698 61.455 302.698 54.3276C302.698 47.0118 306.713 41.291 314.739 41.291C320.403 41.291 325.221 44.1043 325.739 50.0606H320.356Z" fill="black"/>
<path d="M330.272 32.7065H335.656V51.7466L345.382 41.9439H351.992L342.645 50.8548L352.89 66.1898H346.327L338.867 54.4185L335.656 57.5144V66.1898H330.272V32.7065Z" fill="black"/>
<path d="M354.353 54.0449C354.353 46.6348 358.839 41.2876 366.678 41.2876C374.514 41.2876 379 46.6348 379 54.0449C379 61.5021 374.514 66.8493 366.678 66.8493C358.839 66.8493 354.353 61.5021 354.353 54.0449ZM373.617 54.0449C373.617 49.8721 371.492 45.5109 366.675 45.5109C361.857 45.5109 359.733 49.8721 359.733 54.0449C359.733 58.2648 361.857 62.626 366.675 62.626C371.492 62.6294 373.617 58.2648 373.617 54.0449Z" fill="black"/>
<path d="M75.8347 12.0004C54.8451 12.0951 37.9077 29.0688 38.0004 49.9203C38.0957 70.7691 55.1894 87.5929 76.1764 87.5008C97.166 87.4061 114.103 70.4298 114.011 49.5836C113.915 28.7321 96.8244 11.9083 75.8347 12.0004ZM71.0223 47.8972C67.2693 47.8972 64.2262 44.8771 64.2262 41.1493C64.2262 37.4241 67.2693 34.4014 71.0223 34.4014C74.7726 34.4014 77.8158 37.4241 77.8158 41.1493C77.8185 44.8771 74.7753 47.8972 71.0223 47.8972ZM76.4412 55.195L76.4757 55.1529L76.5127 55.1108C78.4515 56.3525 80.6656 56.7919 82.8772 56.855C85.0913 56.9129 87.3479 56.7471 89.5674 56.3025C91.7842 55.8448 93.9639 55.1687 96.0695 54.3058C97.2508 53.8217 98.4267 53.2929 99.5471 52.6721C99.555 52.6668 99.5603 52.6642 99.5682 52.6589C100.265 52.2433 100.945 51.8039 101.616 51.3514C101.761 51.2488 101.902 51.141 102.039 51.0305L102.055 51.0489L102.113 51.1173C100.405 52.6616 98.3711 53.8086 96.2999 54.8214C94.2076 55.8001 92.0252 56.6025 89.7713 57.1812C87.5253 57.7574 85.1814 58.1941 82.8083 57.9783C80.4749 57.7705 78.0145 56.9576 76.4412 55.195ZM93.8792 47.8972C93.8765 47.087 94.5334 46.4345 95.3438 46.4266C96.1596 46.424 96.8164 47.0738 96.8244 47.8814C96.827 48.6891 96.1702 49.3494 95.3597 49.3521C94.5466 49.3573 93.8845 48.7049 93.8792 47.8972ZM82.2389 84.1045C80.7716 73.8892 89.7528 63.8844 94.8168 58.7649C95.9662 57.6048 97.7434 56.0053 99.3961 54.3058C105.97 48.1998 107.278 40.9046 93.8236 37.2584C91.273 36.5244 88.6298 35.4853 85.9521 34.4356C85.8674 34.1909 85.772 33.9594 85.6608 33.7411C85.3535 33.2149 84.8159 32.6098 84.0028 31.9232C82.2548 30.4158 78.9679 30.4552 76.1313 31.1234C72.9955 30.3895 69.902 30.129 66.9277 30.8367C53.9181 34.3961 51.8257 40.6994 51.3199 48.2945C50.6312 56.5025 50.2287 62.619 47.1007 69.6063C43.1968 64.0133 40.8952 57.2286 40.8634 49.9071C40.776 30.6289 56.4395 14.9311 75.848 14.8442C95.2564 14.7574 111.06 30.3132 111.148 49.5914C111.227 66.8098 98.734 81.1765 82.2389 84.1045Z" fill="black"/>
<path d="M75.8 41.2122C75.8 43.8351 73.66 45.9581 71.0221 45.9581C68.3815 45.9581 66.2415 43.8351 66.2415 41.2122C66.2415 38.5893 68.3815 36.4663 71.0221 36.4663C73.66 36.4637 75.8 38.5893 75.8 41.2122Z" fill="black"/>
</svg>
