<svg width="416" height="100" viewBox="0 0 416 100" fill="none" xmlns="http://www.w3.org/2000/svg">
<rect width="416" height="100" rx="20" fill="white"/>
<path d="M148.556 62.3799V39.2877H158.651C161.158 39.2877 163.357 39.7716 165.249 40.7392C167.14 41.7069 168.614 43.0485 169.669 44.7639C170.725 46.4793 171.253 48.5026 171.253 50.8338C171.253 53.143 170.725 55.1663 169.669 56.9037C168.614 58.6192 167.14 59.9607 165.249 60.9284C163.357 61.896 161.158 62.3799 158.651 62.3799H148.556ZM152.845 58.7511H158.453C160.19 58.7511 161.686 58.4212 162.94 57.7615C164.215 57.1017 165.194 56.178 165.876 54.9904C166.579 53.8028 166.931 52.4173 166.931 50.8338C166.931 49.2284 166.579 47.8428 165.876 46.6772C165.194 45.4896 164.215 44.5659 162.94 43.9062C161.686 43.2464 160.19 42.9165 158.453 42.9165H152.845V58.7511ZM179.769 48.8875H191.25V52.4173H179.769V48.8875ZM180.099 58.7841H193.13V62.3799H175.811V39.2877H192.668V42.8835H180.099V58.7841ZM194.849 62.3799L204.581 48.9864V52.2193L195.311 39.2877H200.16L207.055 48.8545L205.075 48.8875L211.904 39.2877H216.556L207.352 51.9884V48.8875L217.149 62.3799H212.201L204.944 52.2193H206.89L199.731 62.3799H194.849ZM224.212 62.3799V42.9165H216.558V39.2877H236.154V42.9165H228.5V62.3799H224.212ZM253.174 62.3799V42.9165H245.52V39.2877H265.116V42.9165H257.462V62.3799H253.174ZM278.832 62.7098C277.029 62.7098 275.368 62.4129 273.851 61.8191C272.333 61.2253 271.014 60.4006 269.892 59.3449C268.771 58.2673 267.902 57.0137 267.286 55.5842C266.67 54.1327 266.362 52.5492 266.362 50.8338C266.362 49.1184 266.67 47.5459 267.286 46.1164C267.902 44.6649 268.771 43.4113 269.892 42.3557C271.014 41.2781 272.333 40.4423 273.851 39.8485C275.368 39.2547 277.018 38.9578 278.799 38.9578C280.603 38.9578 282.252 39.2547 283.748 39.8485C285.265 40.4423 286.585 41.2781 287.706 42.3557C288.828 43.4113 289.697 44.6649 290.312 46.1164C290.928 47.5459 291.236 49.1184 291.236 50.8338C291.236 52.5492 290.928 54.1327 290.312 55.5842C289.697 57.0357 288.828 58.2893 287.706 59.3449C286.585 60.4006 285.265 61.2253 283.748 61.8191C282.252 62.4129 280.614 62.7098 278.832 62.7098ZM278.799 58.949C279.965 58.949 281.042 58.7511 282.032 58.3553C283.022 57.9594 283.879 57.3986 284.605 56.6728C285.331 55.9251 285.892 55.0674 286.288 54.0997C286.706 53.11 286.914 52.0214 286.914 50.8338C286.914 49.6462 286.706 48.5686 286.288 47.6009C285.892 46.6112 285.331 45.7535 284.605 45.0278C283.879 44.28 283.022 43.7082 282.032 43.3124C281.042 42.9165 279.965 42.7186 278.799 42.7186C277.634 42.7186 276.556 42.9165 275.566 43.3124C274.599 43.7082 273.741 44.28 272.993 45.0278C272.267 45.7535 271.696 46.6112 271.278 47.6009C270.882 48.5686 270.684 49.6462 270.684 50.8338C270.684 51.9994 270.882 53.077 271.278 54.0667C271.696 55.0564 272.267 55.9251 272.993 56.6728C273.719 57.3986 274.577 57.9594 275.566 58.3553C276.556 58.7511 277.634 58.949 278.799 58.949ZM306.602 62.7098C304.799 62.7098 303.138 62.4129 301.621 61.8191C300.103 61.2253 298.784 60.4006 297.662 59.3449C296.54 58.2673 295.672 57.0137 295.056 55.5842C294.44 54.1327 294.132 52.5492 294.132 50.8338C294.132 49.1184 294.44 47.5459 295.056 46.1164C295.672 44.6649 296.54 43.4113 297.662 42.3557C298.784 41.2781 300.103 40.4423 301.621 39.8485C303.138 39.2547 304.788 38.9578 306.569 38.9578C308.372 38.9578 310.022 39.2547 311.517 39.8485C313.035 40.4423 314.354 41.2781 315.476 42.3557C316.598 43.4113 317.466 44.6649 318.082 46.1164C318.698 47.5459 319.006 49.1184 319.006 50.8338C319.006 52.5492 318.698 54.1327 318.082 55.5842C317.466 57.0357 316.598 58.2893 315.476 59.3449C314.354 60.4006 313.035 61.2253 311.517 61.8191C310.022 62.4129 308.383 62.7098 306.602 62.7098ZM306.569 58.949C307.735 58.949 308.812 58.7511 309.802 58.3553C310.792 57.9594 311.649 57.3986 312.375 56.6728C313.101 55.9251 313.662 55.0674 314.058 54.0997C314.475 53.11 314.684 52.0214 314.684 50.8338C314.684 49.6462 314.475 48.5686 314.058 47.6009C313.662 46.6112 313.101 45.7535 312.375 45.0278C311.649 44.28 310.792 43.7082 309.802 43.3124C308.812 42.9165 307.735 42.7186 306.569 42.7186C305.403 42.7186 304.326 42.9165 303.336 43.3124C302.369 43.7082 301.511 44.28 300.763 45.0278C300.037 45.7535 299.465 46.6112 299.048 47.6009C298.652 48.5686 298.454 49.6462 298.454 50.8338C298.454 51.9994 298.652 53.077 299.048 54.0667C299.465 55.0564 300.037 55.9251 300.763 56.6728C301.489 57.3986 302.347 57.9594 303.336 58.3553C304.326 58.7511 305.403 58.949 306.569 58.949ZM323.552 62.3799V39.2877H327.84V58.7511H339.914V62.3799H323.552ZM350.297 62.7098C348.494 62.7098 346.767 62.4569 345.118 61.951C343.469 61.4232 342.16 60.7524 341.192 59.9387L342.677 56.6068C343.601 57.3326 344.744 57.9374 346.108 58.4212C347.471 58.9051 348.868 59.147 350.297 59.147C351.507 59.147 352.486 59.015 353.233 58.7511C353.981 58.4872 354.531 58.1353 354.883 57.6955C355.235 57.2336 355.411 56.7168 355.411 56.145C355.411 55.4412 355.158 54.8804 354.652 54.4626C354.146 54.0227 353.486 53.6818 352.672 53.4399C351.881 53.176 350.99 52.9341 350 52.7142C349.033 52.4942 348.054 52.2413 347.064 51.9554C346.097 51.6475 345.206 51.2627 344.392 50.8008C343.601 50.317 342.952 49.6792 342.446 48.8875C341.94 48.0957 341.687 47.0841 341.687 45.8525C341.687 44.5989 342.017 43.4553 342.677 42.4217C343.359 41.366 344.381 40.5303 345.745 39.9145C347.13 39.2767 348.879 38.9578 350.99 38.9578C352.376 38.9578 353.75 39.1338 355.114 39.4857C356.477 39.8375 357.665 40.3434 358.676 41.0031L357.324 44.335C356.29 43.7192 355.224 43.2684 354.124 42.9825C353.024 42.6746 351.969 42.5206 350.957 42.5206C349.769 42.5206 348.802 42.6636 348.054 42.9495C347.328 43.2354 346.789 43.6093 346.438 44.0711C346.108 44.5329 345.943 45.0608 345.943 45.6546C345.943 46.3583 346.185 46.9301 346.668 47.37C347.174 47.7878 347.823 48.1177 348.615 48.3596C349.429 48.6016 350.33 48.8435 351.32 49.0854C352.31 49.3053 353.288 49.5582 354.256 49.8441C355.246 50.13 356.136 50.5039 356.928 50.9658C357.742 51.4276 358.391 52.0544 358.874 52.8461C359.38 53.6379 359.633 54.6385 359.633 55.8481C359.633 57.0797 359.292 58.2233 358.61 59.2789C357.951 60.3126 356.928 61.1483 355.542 61.7861C354.157 62.4019 352.409 62.7098 350.297 62.7098Z" fill="black"/>
<g clip-path="url(#clip0_5_242)">
<path fill-rule="evenodd" clip-rule="evenodd" d="M81.8828 13.6921C76.931 16.2411 72.8797 18.3981 72.8806 18.4858C72.8828 18.7122 84.7651 24.6588 85.1869 24.6443C85.3787 24.638 86.7704 24.0049 88.2794 23.2377L91.0235 21.843L94.0203 23.3652L97.017 24.8877L101.925 22.7086C109.319 19.4249 110.088 19.0651 109.967 18.9442C109.807 18.7838 107.155 17.3757 99.9589 13.632C96.4811 11.8226 93.1057 10.0486 92.4576 9.6896C91.8097 9.33063 91.1911 9.04185 91.0831 9.04744C90.975 9.05303 86.8348 11.1431 81.8828 13.6921ZM60.1641 24.8059L55.0093 27.437V38.9847C55.0093 45.336 55.077 50.5323 55.16 50.5323C55.2428 50.5323 57.7789 49.4459 60.7958 48.1181L66.2811 45.7039V33.5319L68.9616 34.975C71.0271 36.086 73.0939 37.1948 75.1619 38.3013L78.6817 40.1844L80.2479 39.4846C81.2302 39.045 82.2104 38.6011 83.1888 38.1529C83.9447 37.805 85.8005 36.979 87.3125 36.3171C88.8246 35.6548 90.2242 34.9889 90.4227 34.8371C90.6864 34.6355 87.4715 32.8799 78.5318 28.3435C71.7933 24.924 66.0637 22.1371 65.7994 22.1504C65.5352 22.1638 62.9993 23.3586 60.1641 24.8059ZM110.896 25.5447C107.385 27.1109 104.51 28.4549 104.507 28.5316C104.504 28.6081 106.418 29.7324 108.76 31.0296C111.101 32.3271 113.018 33.4581 113.018 33.5432C113.018 33.6282 110.945 34.6204 108.413 35.7486C105.88 36.8765 99.4778 39.7336 94.1856 42.0977L76.4532 50.0183C71.9926 52.0109 67.9719 53.8069 67.5183 54.0099C58.4073 58.0856 55.903 59.2166 55.5591 59.4107C55.2133 59.6061 55.135 60.7416 55.0734 66.4406L55 73.2378L59.6097 75.5588L64.2192 77.8797L70.6111 75.0291C74.1268 73.4614 77.003 72.0965 77.003 71.996C77.003 71.8958 76.3534 71.4775 75.5597 71.0661C74.7657 70.6547 73.1266 69.7441 71.9169 69.042C70.7074 68.3399 69.5013 67.6958 69.2365 67.6103C68.9718 67.5251 68.759 67.3761 68.7633 67.2789C68.7677 67.182 71.5824 65.8608 75.0178 64.3428C81.6904 61.3947 86.7968 59.1225 97.7595 54.2235C102.662 52.0333 107.564 49.8444 112.468 47.6569C116.777 45.7348 121.788 43.4899 123.602 42.6683L126.901 41.1745L126.975 34.2999L127.048 27.4257L122.373 25.0543C119.801 23.7501 117.603 22.6863 117.488 22.6902C117.373 22.6938 114.407 23.9782 110.896 25.5447ZM125.649 50.3455C124.96 50.6781 123.599 51.3007 122.624 51.729C121.65 52.1573 119.801 52.9817 118.516 53.5612L116.179 54.6145L116.126 60.6497C116.096 63.969 115.973 66.6701 115.851 66.6526C115.574 66.6119 111.195 64.3923 106.792 62.0611C103.615 60.3788 103.415 60.3119 102.668 60.6773C102.237 60.8887 99.6565 62.0321 96.9348 63.2187C94.213 64.4052 91.8974 65.4534 91.7885 65.5483C91.6799 65.6431 97.1577 68.577 103.962 72.0684L116.332 78.4164L121.617 75.715C124.523 74.2294 126.994 72.8744 127.108 72.7039C127.364 72.3207 127.342 49.6883 127.086 49.7189C126.984 49.7309 126.338 50.013 125.649 50.3455ZM96.385 76.9103C95.4683 77.2997 94.5519 77.6897 93.6358 78.0802C90.8692 79.263 91.4114 79.3022 88.12 77.6831C85.9278 76.6047 84.9829 76.272 84.5727 76.4335C84.265 76.5546 81.6173 77.7318 78.6883 79.0493C75.7595 80.3669 73.2616 81.4449 73.1373 81.4449C71.9085 81.4449 73.9514 82.651 81.8345 86.5806L91.0795 91.1885L94.9694 89.2908C97.1088 88.2471 101.424 86.157 104.559 84.6462C107.694 83.1351 110.22 81.8596 110.172 81.8114C110.125 81.7635 107.498 80.4307 104.335 78.8496L98.5843 75.9753L96.385 76.9103Z" fill="black"/>
</g>
<defs>
<clipPath id="clip0_5_242">
<rect width="72.3644" height="82.2322" fill="white" transform="translate(55 9)"/>
</clipPath>
</defs>
</svg>
