<svg width="146" height="132" viewBox="0 0 146 132" fill="none" xmlns="http://www.w3.org/2000/svg">
<path d="M105.725 0.75C130.71 0.75 145.474 15.095 145.474 39.4495V39.7197H114.773C100.486 39.7448 88.9113 51.0298 88.8856 64.9601C88.8662 78.9218 100.453 90.2571 114.773 90.2759H145.5V92.494C145.5 116.848 130.736 131.25 105.751 131.25H40.2558C15.2642 131.25 0.5 116.848 0.5 92.494V39.4495C0.5 15.095 15.2642 0.75 40.2558 0.75H105.725ZM75.7776 28.843H34.8618C31.82 28.8557 29.3518 31.2622 29.3388 34.2343C29.326 37.2189 31.8007 39.6505 34.8618 39.6631H75.8291C78.8902 39.6505 81.3649 37.2189 81.3521 34.228C81.3391 31.2434 78.8387 28.8305 75.7776 28.843Z" fill="#EFE564"/>
<path opacity="0.4" d="M102.271 68.1507C103.787 75.0468 109.833 79.8987 116.736 79.7725H140.298C143.17 79.7725 145.5 77.3939 145.5 74.4538V56.1C145.494 53.1661 143.17 50.7812 140.298 50.7749H116.182C108.33 50.8001 101.988 57.3177 102 65.3494C102 66.2895 102.092 67.2296 102.271 68.1507Z" fill="#EFE564"/>
<path d="M116.5 72.5249C120.504 72.5249 123.75 69.279 123.75 65.2749C123.75 61.2708 120.504 58.0249 116.5 58.0249C112.496 58.0249 109.25 61.2708 109.25 65.2749C109.25 69.279 112.496 72.5249 116.5 72.5249Z" fill="#EFE564"/>
</svg>
