<svg width="174" height="174" viewBox="0 0 174 174" fill="none" xmlns="http://www.w3.org/2000/svg">
<path d="M113.462 21.0251H111.65V16.675H104.4V21.0251H102.587C97.875 21.0251 94.25 24.6501 94.25 29.3626V34.4375C94.25 39.15 97.875 42.7751 102.587 42.7751H113.825C114.55 42.7751 114.913 43.1376 114.913 43.8626V48.9375C114.913 49.6625 114.55 50.0251 113.825 50.0251H102.587C101.862 50.0251 101.5 49.6625 101.5 48.9375V46.4001H94.25V48.9375C94.25 53.65 97.875 57.2751 102.587 57.2751H104.4V61.625H111.65V57.2751H113.462C118.175 57.2751 121.8 53.65 121.8 48.9375V43.8626C121.8 39.1501 118.175 35.5251 113.462 35.5251H102.225C101.5 35.5251 101.137 35.1625 101.137 34.4375V29.3626C101.137 28.6376 101.5 28.2751 102.225 28.2751H113.462C114.187 28.2751 114.55 28.6376 114.55 29.3626V31.9001H121.8V29.3626C121.8 24.6501 117.812 21.0251 113.462 21.0251ZM50.75 151.888H108.75C111.287 151.888 113.462 151.163 115.637 150.075L165.662 119.625C171.825 116 174 107.663 170.375 101.5C168.562 98.6001 165.662 96.425 162.037 95.3375C158.412 94.6125 155.15 94.9751 151.887 96.7876L110.925 121.438C113.1 119.263 114.187 116 114.187 112.738C114.187 105.488 108.387 99.3251 100.775 99.3251H50.75V92.0751H1.8125V172.188H50.75V151.888ZM101.137 106.575C104.4 106.575 107.3 109.113 107.3 112.738C107.3 116.363 104.762 118.9 101.137 118.9H79.025V132.675H106.575L155.875 102.95C157.325 102.225 158.775 101.863 160.587 102.225C162.037 102.588 163.487 103.675 164.212 105.125C166.025 108.025 164.937 111.65 162.037 113.463L111.65 143.913C110.562 144.638 109.475 144.638 108.387 144.638H50.75V106.575H101.137ZM43.5 164.938H9.0625V99.3251H43.5V151.888V164.938Z" fill="#EFE564"/>
<path d="M29.725 136.663H22.475V155.15H29.725V136.663Z" fill="#EFE564"/>
<path d="M43.5 56.85C43.5 67.8957 52.4543 76.85 63.5 76.85H152.188C163.233 76.85 172.188 67.8957 172.188 56.85V21.8125C172.188 10.7668 163.233 1.8125 152.187 1.8125H63.5C52.4543 1.8125 43.5 10.7668 43.5 21.8125V56.85ZM50.75 29.0625C50.75 18.0168 59.7043 9.0625 70.75 9.0625H144.938C155.983 9.0625 164.938 18.0168 164.938 29.0625V49.6C164.938 60.6457 155.983 69.6 144.938 69.6H70.75C59.7043 69.6 50.75 60.6457 50.75 49.6V29.0625Z" fill="#EFE564"/>
<path d="M145.362 33.7124C142.462 33.7124 139.925 36.2499 139.925 39.1499C139.925 42.0499 142.462 44.5874 145.362 44.5874C148.262 44.5874 150.8 42.0499 150.8 39.1499C151.162 36.2499 148.625 33.7124 145.362 33.7124Z" fill="#EFE564"/>
<path d="M69.9625 44.5874C72.9655 44.5874 75.4 42.153 75.4 39.1499C75.4 36.1469 72.9655 33.7124 69.9625 33.7124C66.9594 33.7124 64.525 36.1469 64.525 39.1499C64.525 42.153 66.9594 44.5874 69.9625 44.5874Z" fill="#EFE564"/>
</svg>
