<svg width="416" height="100" viewBox="0 0 416 100" fill="none" xmlns="http://www.w3.org/2000/svg">
<rect width="416" height="100" rx="20" fill="white"/>
<path d="M168.33 67V38.9184H180.485C182.999 38.9184 185.165 39.3329 186.984 40.162C188.803 40.9643 190.207 42.1277 191.196 43.6521C192.186 45.1766 192.68 46.9952 192.68 49.108C192.68 51.1941 192.186 52.9993 191.196 54.5237C190.207 56.0482 188.803 57.2249 186.984 58.054C185.165 58.8563 182.999 59.2575 180.485 59.2575H171.94L174.829 56.329V67H168.33ZM174.829 57.0511L171.94 53.9621H180.124C182.13 53.9621 183.627 53.5342 184.617 52.6784C185.607 51.8225 186.101 50.6324 186.101 49.108C186.101 47.5568 185.607 46.3533 184.617 45.4975C183.627 44.6417 182.13 44.2138 180.124 44.2138H171.94L174.829 41.1248V57.0511ZM211.352 67.4814C209.132 67.4814 207.073 67.1203 205.174 66.3983C203.302 65.6762 201.67 64.6599 200.279 63.3494C198.915 62.0389 197.846 60.5011 197.07 58.736C196.321 56.9708 195.947 55.0452 195.947 52.9592C195.947 50.8731 196.321 48.9475 197.07 47.1824C197.846 45.4173 198.929 43.8795 200.32 42.569C201.71 41.2585 203.342 40.2422 205.214 39.5201C207.086 38.798 209.118 38.437 211.312 38.437C213.531 38.437 215.564 38.798 217.409 39.5201C219.281 40.2422 220.899 41.2585 222.263 42.569C223.654 43.8795 224.737 45.4173 225.513 47.1824C226.288 48.9208 226.676 50.8464 226.676 52.9592C226.676 55.0452 226.288 56.9842 225.513 58.7761C224.737 60.5412 223.654 62.079 222.263 63.3895C220.899 64.6732 219.281 65.6762 217.409 66.3983C215.564 67.1203 213.545 67.4814 211.352 67.4814ZM211.312 61.9453C212.568 61.9453 213.719 61.7314 214.762 61.3034C215.831 60.8755 216.767 60.2604 217.57 59.4581C218.372 58.6557 218.987 57.7063 219.415 56.6098C219.87 55.5133 220.097 54.2964 220.097 52.9592C220.097 51.622 219.87 50.4051 219.415 49.3086C218.987 48.212 218.372 47.2626 217.57 46.4603C216.794 45.658 215.871 45.0428 214.802 44.6149C213.732 44.187 212.568 43.9731 211.312 43.9731C210.055 43.9731 208.891 44.187 207.821 44.6149C206.778 45.0428 205.856 45.658 205.053 46.4603C204.251 47.2626 203.622 48.212 203.168 49.3086C202.74 50.4051 202.526 51.622 202.526 52.9592C202.526 54.2697 202.74 55.4865 203.168 56.6098C203.622 57.7063 204.238 58.6557 205.013 59.4581C205.816 60.2604 206.752 60.8755 207.821 61.3034C208.891 61.7314 210.055 61.9453 211.312 61.9453ZM245.2 67.4814C242.98 67.4814 240.921 67.1203 239.022 66.3983C237.15 65.6762 235.519 64.6599 234.128 63.3494C232.764 62.0389 231.694 60.5011 230.918 58.736C230.17 56.9708 229.795 55.0452 229.795 52.9592C229.795 50.8731 230.17 48.9475 230.918 47.1824C231.694 45.4173 232.777 43.8795 234.168 42.569C235.559 41.2585 237.19 40.2422 239.062 39.5201C240.934 38.798 242.967 38.437 245.16 38.437C247.38 38.437 249.412 38.798 251.258 39.5201C253.13 40.2422 254.748 41.2585 256.112 42.569C257.502 43.8795 258.586 45.4173 259.361 47.1824C260.137 48.9208 260.525 50.8464 260.525 52.9592C260.525 55.0452 260.137 56.9842 259.361 58.7761C258.586 60.5412 257.502 62.079 256.112 63.3895C254.748 64.6732 253.13 65.6762 251.258 66.3983C249.412 67.1203 247.393 67.4814 245.2 67.4814ZM245.16 61.9453C246.417 61.9453 247.567 61.7314 248.61 61.3034C249.68 60.8755 250.616 60.2604 251.418 59.4581C252.22 58.6557 252.836 57.7063 253.263 56.6098C253.718 55.5133 253.945 54.2964 253.945 52.9592C253.945 51.622 253.718 50.4051 253.263 49.3086C252.836 48.212 252.22 47.2626 251.418 46.4603C250.643 45.658 249.72 45.0428 248.65 44.6149C247.58 44.187 246.417 43.9731 245.16 43.9731C243.903 43.9731 242.74 44.187 241.67 44.6149C240.627 45.0428 239.704 45.658 238.902 46.4603C238.099 47.2626 237.471 48.212 237.016 49.3086C236.588 50.4051 236.374 51.622 236.374 52.9592C236.374 54.2697 236.588 55.4865 237.016 56.6098C237.471 57.7063 238.086 58.6557 238.862 59.4581C239.664 60.2604 240.6 60.8755 241.67 61.3034C242.74 61.7314 243.903 61.9453 245.16 61.9453ZM278.848 67.4814C276.682 67.4814 274.662 67.1337 272.79 66.4384C270.945 65.7163 269.34 64.7 267.976 63.3895C266.612 62.079 265.542 60.5412 264.767 58.7761C264.018 57.011 263.644 55.072 263.644 52.9592C263.644 50.8464 264.018 48.9074 264.767 47.1423C265.542 45.3771 266.612 43.8393 267.976 42.5289C269.367 41.2184 270.985 40.2155 272.83 39.5201C274.676 38.798 276.695 38.437 278.888 38.437C281.322 38.437 283.515 38.8649 285.467 39.7207C287.446 40.5498 289.104 41.78 290.442 43.4114L286.269 47.2626C285.307 46.1661 284.237 45.3504 283.06 44.8155C281.883 44.2539 280.6 43.9731 279.209 43.9731C277.898 43.9731 276.695 44.187 275.598 44.6149C274.502 45.0428 273.552 45.658 272.75 46.4603C271.948 47.2626 271.319 48.212 270.865 49.3086C270.437 50.4051 270.223 51.622 270.223 52.9592C270.223 54.2964 270.437 55.5133 270.865 56.6098C271.319 57.7063 271.948 58.6557 272.75 59.4581C273.552 60.2604 274.502 60.8755 275.598 61.3034C276.695 61.7314 277.898 61.9453 279.209 61.9453C280.6 61.9453 281.883 61.6779 283.06 61.143C284.237 60.5813 285.307 59.7389 286.269 58.6156L290.442 62.4668C289.104 64.0982 287.446 65.3418 285.467 66.1977C283.515 67.0535 281.308 67.4814 278.848 67.4814ZM307.882 67.4814C305.662 67.4814 303.603 67.1203 301.704 66.3983C299.832 65.6762 298.201 64.6599 296.81 63.3494C295.446 62.0389 294.376 60.5011 293.601 58.736C292.852 56.9708 292.477 55.0452 292.477 52.9592C292.477 50.8731 292.852 48.9475 293.601 47.1824C294.376 45.4173 295.459 43.8795 296.85 42.569C298.241 41.2585 299.872 40.2422 301.744 39.5201C303.616 38.798 305.649 38.437 307.842 38.437C310.062 38.437 312.094 38.798 313.94 39.5201C315.812 40.2422 317.43 41.2585 318.794 42.569C320.185 43.8795 321.268 45.4173 322.043 47.1824C322.819 48.9208 323.207 50.8464 323.207 52.9592C323.207 55.0452 322.819 56.9842 322.043 58.7761C321.268 60.5412 320.185 62.079 318.794 63.3895C317.43 64.6732 315.812 65.6762 313.94 66.3983C312.094 67.1203 310.075 67.4814 307.882 67.4814ZM307.842 61.9453C309.099 61.9453 310.249 61.7314 311.292 61.3034C312.362 60.8755 313.298 60.2604 314.1 59.4581C314.903 58.6557 315.518 57.7063 315.946 56.6098C316.4 55.5133 316.628 54.2964 316.628 52.9592C316.628 51.622 316.4 50.4051 315.946 49.3086C315.518 48.212 314.903 47.2626 314.1 46.4603C313.325 45.658 312.402 45.0428 311.332 44.6149C310.262 44.187 309.099 43.9731 307.842 43.9731C306.585 43.9731 305.422 44.187 304.352 44.6149C303.309 45.0428 302.386 45.658 301.584 46.4603C300.782 47.2626 300.153 48.212 299.698 49.3086C299.271 50.4051 299.057 51.622 299.057 52.9592C299.057 54.2697 299.271 55.4865 299.698 56.6098C300.153 57.7063 300.768 58.6557 301.544 59.4581C302.346 60.2604 303.282 60.8755 304.352 61.3034C305.422 61.7314 306.585 61.9453 307.842 61.9453ZM328.091 67V38.9184H334.59V67H328.091ZM341.254 67V38.9184H346.63L363.198 59.1371H360.59V38.9184H367.009V67H361.674L345.065 46.7812H347.673V67H341.254Z" fill="black"/>
<g clip-path="url(#clip0_5_239)">
<path d="M137.123 61.585C135.623 59.8811 133.825 58.3978 131.819 57.2051C132.524 56.3432 133.954 52.9055 134.093 52.3542C134.52 50.6304 134.56 48.8063 134.282 47.0523C133.219 40.3272 127.23 37.3305 122.035 34.1132C118.3 31.798 114.585 28.4405 113.323 24.0606C112.519 21.2844 113.025 18.2877 114.376 15.782C115.072 14.4891 115.995 13.3065 117.088 12.3343C118.042 11.4824 119.234 10.9612 119.581 9.60817C120.853 4.66707 110.234 6.10029 107.83 6.51121C99.5563 7.94443 92.0668 12.8054 85.809 18.2476C82.988 20.7031 80.1372 23.1085 77.942 26.1754C76.8693 27.6788 75.9455 29.3024 75.3197 31.0463C75.1608 31.4873 74.1873 36.5086 74.4357 36.4585C73.204 36.679 72.012 37.0699 70.8697 37.6211C66.2012 39.8962 63.0326 44.8574 61.9995 49.8787C61.2248 53.6672 61.7015 57.9668 64.0457 61.134C63.9067 60.9536 61.6221 62.8679 61.3936 63.0683C57.2416 66.7366 55.1656 72.6298 56.3079 78.1121C56.8642 80.7881 58.1654 83.2737 60.003 85.2882C64.7808 90.52 72.1511 92.3241 78.836 93.4766C89.2656 95.2807 100.162 95.3308 110.691 94.4188C120.843 93.5468 133.676 91.873 139.507 82.3416C143.877 75.2256 142.109 67.2377 137.123 61.585ZM137.232 75.3058C136.775 79.0542 134.64 82.3015 131.511 84.3461C128.829 86.1001 125.68 86.9821 122.551 87.6435C113.9 89.4676 105.049 90.3797 96.2088 90.2193C87.8949 90.079 78.8559 89.187 70.9293 86.4809C66.7475 85.0477 62.6849 82.2113 61.3241 77.9618C59.1289 71.1665 64.9496 65.1831 71.0882 63.5394C72.7371 63.0984 74.5052 63.0082 76.164 63.4091C77.942 63.83 80.1869 65.5439 81.657 63.4893C82.6801 62.0661 81.8556 60.4324 80.4948 59.6506C78.9552 58.7586 76.76 58.4078 75.0217 58.2675C73.9887 58.1873 72.9358 58.1974 71.9027 58.3176C71.5452 58.3577 68.893 59.1395 68.7937 59.0393C62.7445 53.1761 69.0222 41.4397 76.7799 41.2793C80.1571 41.2092 82.8688 42.7827 86.0374 43.5244C88.0042 43.9854 90.0007 41.8406 88.8485 39.9163C87.9744 38.453 86.1467 37.8917 84.617 37.4908C84.2097 37.3906 79.4022 36.5186 79.4022 36.4284C79.273 31.0764 83.8124 26.8168 87.4181 23.4994C93.8547 17.5861 102.069 11.5726 111.615 11.0213C107.88 13.4969 107.513 19.9213 108.198 23.9103C109.638 32.239 116.373 36.6189 123.127 40.4575C125.064 41.56 127.071 42.8328 128.332 44.7171C129.474 46.4209 129.772 48.6158 129.395 50.6103C129.236 51.4522 128.928 52.254 128.61 53.0358C128.521 53.2462 127.716 55.371 127.518 55.3209C123.256 54.3086 122.71 53.577 120.952 53.5569C119.303 53.5369 117.485 54.5792 117.833 56.4735C118.002 57.4256 118.787 58.1673 119.661 58.5582C122.213 59.6907 125.173 59.5404 127.786 60.7631C133.378 63.369 138.037 68.721 137.232 75.3058Z" fill="#3A3A3A"/>
<path fill-rule="evenodd" clip-rule="evenodd" d="M123.455 59.6007C125.283 61.3246 127.19 63.5396 128.58 65.9149C131.938 71.6378 131.491 78.9943 127.438 84.2662C127.336 84.3986 127.202 84.5896 127.047 84.8107C126.463 85.6439 125.579 86.904 124.975 87.0624C124.16 87.2729 123.346 87.4633 122.531 87.6337C113.88 89.4578 105.029 90.3599 96.1889 90.2095C90.6463 90.1093 84.766 89.6884 79.124 88.6059C77.8745 88.3669 76.1818 86.7865 74.9734 85.6583C74.7121 85.4142 74.4734 85.1914 74.2668 85.0078C72.6974 83.6147 71.2273 82.0913 70.085 80.3173C66.2707 74.404 68.2573 65.2434 75.6673 63.299C75.8263 63.3191 75.9852 63.3492 76.1441 63.3892C76.5718 63.4911 77.0273 63.6685 77.4931 63.85C78.9534 64.4188 80.515 65.0271 81.6371 63.4694C82.6602 62.0462 81.8357 60.4126 80.4749 59.6308C78.9353 58.7488 76.75 58.388 75.0018 58.2477C74.4058 58.2076 73.8198 58.1876 73.2238 58.2076C71.5948 55.6719 71.2968 52.6351 72.31 49.7586C73.7801 45.9501 77.197 42.4823 81.3589 42.0613C81.8389 42.2144 82.315 42.3773 82.7921 42.5404L82.7922 42.5404L82.7922 42.5405C83.8454 42.9007 84.9032 43.2625 86.0175 43.5246C87.9843 43.9856 89.9808 41.8408 88.8286 39.9165C87.9644 38.4532 86.1367 37.892 84.5971 37.4911C84.5921 37.4911 84.5847 37.4885 84.5772 37.486C84.5698 37.4835 84.5623 37.481 84.5574 37.481C84.6368 35.687 85.1534 33.8529 86.1069 32.3094C89.5934 26.1656 93.2587 20.0218 98.4239 15.201C101.106 13.6876 103.957 12.4548 106.966 11.7231C105.397 14.5495 104.553 17.7667 104.553 21.014C104.553 24.7925 105.685 28.5309 107.671 31.7281C109.34 34.419 111.838 36.6068 114.26 38.7283L114.26 38.7284L114.26 38.7286C114.779 39.1829 115.294 39.6343 115.797 40.0869C116.328 40.5645 116.882 41.0381 117.442 41.5164L117.442 41.5166L117.442 41.5167C120.348 43.9994 123.401 46.6076 124.101 50.5404C124.111 50.5939 124.124 50.6624 124.14 50.7432C124.312 51.6306 124.772 54.0065 124.289 54.4291C123.94 54.3139 123.637 54.2074 123.364 54.1113C122.426 53.7812 121.84 53.5749 120.932 53.5672C119.283 53.5371 117.465 54.5895 117.813 56.4837C117.992 57.4359 118.767 58.1775 119.641 58.5684C120.843 59.1096 122.144 59.3602 123.455 59.6007ZM93.0101 75.1357C92.3744 74.835 91.6294 74.4341 91.0136 73.9129C90.1593 73.2013 89.4938 72.1289 89.9011 70.9963C90.2984 69.964 91.391 69.0821 92.5234 69.2625C93.3549 69.3949 94.2347 69.8405 95.1079 70.2828C95.8201 70.6436 96.528 71.0022 97.2018 71.1868C98.7315 71.5977 100.37 71.6278 101.91 71.2469C102.846 71.0122 103.584 70.5993 104.329 70.1828C104.952 69.8344 105.579 69.4835 106.33 69.2324C106.887 69.042 107.492 68.9718 108.059 69.1322C109.489 69.5331 110.204 71.3973 109.459 72.6801C108.865 73.6946 107.649 74.3187 106.615 74.8492C106.525 74.8952 106.437 74.9405 106.35 74.9853C102.268 77.1101 97.1522 77.1001 93.0101 75.1357ZM87.9747 56.8245C87.8058 59.0896 89.3156 61.5251 91.8088 61.3346C94.1431 61.1542 95.5933 58.6085 95.1364 56.4136C94.5304 53.487 90.7758 52.154 88.7991 54.6296C88.3024 55.251 88.0343 56.0327 87.9747 56.8245ZM108.168 61.3346C105.675 61.5251 104.165 59.0896 104.334 56.8245C104.394 56.0327 104.662 55.251 105.158 54.6296C107.135 52.154 110.89 53.487 111.496 56.4136C111.953 58.6085 110.502 61.1542 108.168 61.3346Z" fill="black"/>
<path d="M119.641 88.225C119.879 88.1849 120.118 88.1348 120.356 88.0947C120.118 88.1348 119.879 88.1749 119.641 88.225Z" fill="#6B4B32"/>
<path d="M122.502 59.4105C122.482 59.4105 122.462 59.4004 122.442 59.4004C122.462 59.4105 122.482 59.4105 122.502 59.4105Z" fill="#6B4B32"/>
<path d="M118.121 88.4955C118.369 88.4554 118.618 88.4053 118.876 88.3652C118.628 88.4053 118.379 88.4454 118.121 88.4955Z" fill="#6B4B32"/>
<path d="M117.912 56.8345C117.952 56.9447 118.002 57.0449 118.052 57.1552C117.992 57.055 117.952 56.9447 117.912 56.8345Z" fill="#6B4B32"/>
<path d="M117.823 56.5039C117.843 56.6142 117.873 56.7244 117.912 56.8347C117.873 56.7244 117.843 56.6142 117.823 56.5039Z" fill="#6B4B32"/>
<path d="M118.052 57.165C118.101 57.2653 118.171 57.3655 118.23 57.4557C118.171 57.3655 118.111 57.2653 118.052 57.165Z" fill="#6B4B32"/>
<path d="M122.025 59.3101C121.995 59.3001 121.955 59.29 121.915 59.29C121.945 59.3001 121.985 59.3101 122.025 59.3101Z" fill="#6B4B32"/>
<path d="M121.538 59.2C121.498 59.19 121.449 59.1799 121.409 59.1699C121.449 59.1799 121.498 59.19 121.538 59.2Z" fill="#6B4B32"/>
<path d="M121.141 87.9342C121.339 87.8941 121.538 87.8541 121.737 87.814C121.538 87.8541 121.339 87.8941 121.141 87.9342Z" fill="#6B4B32"/>
<path d="M118.459 57.7364C118.379 57.6562 118.31 57.566 118.24 57.4658C118.31 57.556 118.379 57.6462 118.459 57.7364Z" fill="#6B4B32"/>
<path d="M120.416 58.8691C120.465 58.8892 120.525 58.9092 120.574 58.9193C120.525 58.9092 120.475 58.8892 120.416 58.8691Z" fill="#6B4B32"/>
<path d="M119.929 58.6885C119.988 58.7085 120.038 58.7386 120.098 58.7586C120.048 58.7386 119.988 58.7085 119.929 58.6885Z" fill="#6B4B32"/>
<path d="M111.605 11.0215C109.628 11.1317 107.721 11.4925 105.864 12.0237C106.231 11.9235 106.599 11.8233 106.976 11.7331C105.407 14.5594 104.562 17.7767 104.562 21.024C104.562 24.8025 105.705 28.5409 107.681 31.738C109.708 35.0154 112.966 37.5411 115.807 40.0968C119.094 43.0535 123.276 45.8598 124.111 50.5503C124.22 51.1918 124.816 53.978 124.299 54.439C123.475 54.1684 122.909 53.9379 122.382 53.7876C123.395 54.0782 124.577 54.6395 127.498 55.3311C127.696 55.3812 128.501 53.2564 128.59 53.0459C128.908 52.2541 129.216 51.4624 129.375 50.6205C129.763 48.616 129.455 46.4311 128.312 44.7272C127.051 42.833 125.044 41.5601 123.107 40.4677C116.363 36.629 109.618 32.2492 108.178 23.9104C107.503 19.9215 107.88 13.497 111.605 11.0215Z" fill="black"/>
<path d="M120.902 59.0293C120.952 59.0393 121.002 59.0594 121.051 59.0694C121.002 59.0594 120.952 59.0393 120.902 59.0293Z" fill="#6B4B32"/>
<path d="M119.333 58.418C119.432 58.4681 119.532 58.5182 119.631 58.5683C119.532 58.5182 119.432 58.4681 119.333 58.418Z" fill="#6B4B32"/>
<path d="M118.737 57.9971C118.816 58.0672 118.906 58.1374 118.995 58.1975C118.906 58.1374 118.816 58.0672 118.737 57.9971Z" fill="#6B4B32"/>
<path d="M118.717 57.9771C118.638 57.9069 118.548 57.8268 118.479 57.7466C118.548 57.8268 118.628 57.9069 118.717 57.9771Z" fill="#6B4B32"/>
<path d="M119.025 58.2275C119.114 58.2877 119.214 58.3478 119.303 58.4079C119.214 58.3478 119.114 58.2877 119.025 58.2275Z" fill="#6B4B32"/>
<path d="M117.813 55.6718C117.952 54.8098 118.608 54.1884 119.422 53.8477C118.598 54.1884 117.952 54.8098 117.813 55.6718Z" fill="#6B4B32"/>
<path d="M103.698 12.7354C103.917 12.6552 104.125 12.5851 104.344 12.5049C104.125 12.575 103.907 12.6552 103.698 12.7354Z" fill="#6B4B32"/>
<path d="M103.202 12.9258C103.023 12.9959 102.844 13.0561 102.665 13.1363C102.844 13.0661 103.023 12.9959 103.202 12.9258Z" fill="#6B4B32"/>
<path d="M103.43 90.1094C103.559 90.0994 103.698 90.0994 103.837 90.0894C103.698 90.0994 103.559 90.1094 103.43 90.1094Z" fill="#6B4B32"/>
<path d="M108.665 89.7486C108.824 89.7386 108.993 89.7185 109.152 89.7085C108.993 89.7185 108.824 89.7386 108.665 89.7486Z" fill="#6B4B32"/>
<path d="M105.625 12.0938C105.337 12.1739 105.059 12.2641 104.771 12.3543C105.059 12.2641 105.337 12.1739 105.625 12.0938Z" fill="#6B4B32"/>
<path d="M104.89 90.0391C105.009 90.0291 105.129 90.0291 105.248 90.019C105.129 90.019 105.009 90.0291 104.89 90.0391Z" fill="#6B4B32"/>
<path d="M124.965 87.0825C124.597 87.1827 124.23 87.2729 123.862 87.3531C124.23 87.2629 124.597 87.1727 124.965 87.0825Z" fill="#6B4B32"/>
<path d="M102.02 90.1692C102.129 90.1692 102.238 90.1592 102.357 90.1592C102.248 90.1592 102.129 90.1692 102.02 90.1692Z" fill="#6B4B32"/>
<path d="M127.776 60.7732C126.395 60.1318 124.925 59.8712 123.455 59.6006C125.293 61.3245 127.19 63.5394 128.58 65.9148C131.938 71.6376 131.491 78.9942 127.448 84.276C126.961 84.9075 125.76 86.8619 124.995 87.0723C127.289 86.461 129.524 85.6391 131.511 84.3562C134.65 82.3116 136.775 79.0643 137.232 75.3159C138.037 68.7211 133.378 63.3691 127.776 60.7732Z" fill="black"/>
<path d="M121.568 53.6173C121.558 53.6173 121.548 53.6173 121.538 53.6173C121.548 53.6074 121.558 53.6074 121.568 53.6173Z" fill="#6B4B32"/>
<path d="M123.723 87.3833C123.395 87.4635 123.058 87.5336 122.72 87.6038C123.058 87.5336 123.395 87.4635 123.723 87.3833Z" fill="#6B4B32"/>
<path d="M121.956 53.6775C121.926 53.6775 121.906 53.6674 121.876 53.6572C121.906 53.6674 121.926 53.6775 121.956 53.6775Z" fill="#6B4B32"/>
<path d="M110.055 89.608C110.264 89.5879 110.463 89.5679 110.671 89.5479C110.463 89.5679 110.254 89.5879 110.055 89.608Z" fill="#6B4B32"/>
<path d="M122.372 53.7776C122.333 53.7676 122.283 53.7576 122.243 53.7476C122.293 53.7576 122.333 53.7676 122.372 53.7776Z" fill="#6B4B32"/>
<path d="M121.787 53.6473C121.767 53.6473 121.737 53.6372 121.717 53.6372C121.737 53.6372 121.767 53.6372 121.787 53.6473Z" fill="#6B4B32"/>
<path d="M122.233 53.7376C122.164 53.7176 122.094 53.7075 122.035 53.6875C122.094 53.7075 122.164 53.7276 122.233 53.7376Z" fill="#6B4B32"/>
<path d="M111.516 89.4479C111.734 89.4278 111.963 89.3977 112.181 89.3677C111.963 89.3977 111.744 89.4278 111.516 89.4479Z" fill="#6B4B32"/>
<path d="M116.591 88.746C116.86 88.7059 117.118 88.6658 117.376 88.6157C117.118 88.6658 116.86 88.7059 116.591 88.746Z" fill="#6B4B32"/>
<path d="M113.006 89.2672C113.254 89.2371 113.502 89.1971 113.75 89.167C113.502 89.2071 113.254 89.2371 113.006 89.2672Z" fill="#6B4B32"/>
<path d="M115.876 88.8564C115.499 88.9166 115.121 88.9667 114.734 89.0268C115.121 88.9767 115.499 88.9166 115.876 88.8564Z" fill="#6B4B32"/>
<path d="M81.6669 63.4894C81.7265 63.3992 81.7861 63.309 81.8358 63.2188C81.7861 63.309 81.7265 63.3992 81.6669 63.4894C80.8722 64.6019 79.8491 64.6119 78.8062 64.3212C79.8491 64.6119 80.8623 64.6019 81.6669 63.4894Z" fill="#936747"/>
<path d="M86.1268 32.3091C89.6034 26.1653 93.2786 20.0215 98.4437 15.2007C98.7715 15.0102 99.1093 14.8298 99.447 14.6494C94.9573 17.0348 90.9245 20.2821 87.4181 23.4993C83.8124 26.8168 79.273 31.0763 79.4022 36.4284C79.4022 36.5186 83.9714 37.3404 84.5773 37.4807C84.6567 35.6867 85.1732 33.8526 86.1268 32.3091Z" fill="black"/>
<path d="M80.4948 59.6508C80.4153 59.6107 80.3359 59.5606 80.2564 59.5205C80.3359 59.5606 80.4153 59.6007 80.4948 59.6508C80.5445 59.6809 80.5842 59.7109 80.6339 59.741C80.5941 59.7109 80.5445 59.6809 80.4948 59.6508Z" fill="#936747"/>
<path d="M86.0374 43.5243C86.6632 43.6747 87.2989 43.5544 87.8254 43.2637C87.289 43.5544 86.6632 43.6747 86.0374 43.5243C84.4183 43.1435 82.9185 42.5521 81.3788 42.061C82.9085 42.5521 84.4183 43.1535 86.0374 43.5243Z" fill="#936747"/>
<path d="M100.113 14.3091C99.894 14.4193 99.6655 14.5296 99.447 14.6498C99.6755 14.5296 99.894 14.4193 100.113 14.3091Z" fill="#936747"/>
<path d="M85.1434 37.6411C85.6004 37.7714 86.0672 37.9217 86.5241 38.1122C86.0672 37.9117 85.6004 37.7614 85.1434 37.6411Z" fill="#936747"/>
<path d="M102.665 13.1362C102.655 13.1362 102.646 13.1462 102.626 13.1462C102.636 13.1462 102.655 13.1362 102.665 13.1362Z" fill="#936747"/>
<path d="M102.049 13.397C101.881 13.4671 101.712 13.5373 101.553 13.6074C101.722 13.5373 101.881 13.4671 102.049 13.397Z" fill="#936747"/>
<path d="M101.046 13.8579C100.867 13.9481 100.679 14.0283 100.49 14.1185C100.679 14.0283 100.857 13.9381 101.046 13.8579Z" fill="#936747"/>
<path d="M79.1439 88.6158C77.6341 88.3252 75.4488 86.0501 74.2867 85.0177C72.7272 83.6246 71.2571 82.1012 70.1049 80.3272C66.2807 74.4139 68.2673 65.2533 75.6773 63.319C74.1575 63.0484 72.5682 63.1586 71.0783 63.5495C64.9397 65.1932 59.1289 71.1766 61.3141 77.9719C62.6849 82.2114 66.7376 85.0478 70.9194 86.491C75.2005 87.9543 79.8193 88.8864 84.468 89.4577C82.69 89.2272 80.902 88.9566 79.1439 88.6158Z" fill="black"/>
<path d="M87.4876 89.7685C86.8519 89.7084 86.2261 89.6483 85.5904 89.5781C86.2261 89.6483 86.8618 89.7084 87.4876 89.7685Z" fill="#936747"/>
<path d="M84.4879 89.4478C84.8454 89.4878 85.1931 89.5279 85.5507 89.568C85.1931 89.538 84.8355 89.4878 84.4879 89.4478Z" fill="#936747"/>
<path d="M89.2061 89.9087C89.6034 89.9388 90.0007 89.9688 90.3881 89.9889C89.9908 89.9688 89.6034 89.9388 89.2061 89.9087Z" fill="#936747"/>
<path d="M71.9027 58.3079C72.3497 58.2577 72.7967 58.2277 73.2437 58.2176C71.6246 55.6819 71.3167 52.6451 72.3298 49.7687C73.7999 45.9501 77.207 42.4923 81.3788 42.0714C79.9187 41.6103 78.4287 41.2495 76.7798 41.2796C69.0321 41.4399 62.7445 53.1663 68.7937 59.0395C68.893 59.1297 71.5451 58.358 71.9027 58.3079Z" fill="black"/>
<path d="M94.4606 90.1792C94.5798 90.1792 94.7089 90.1892 94.8281 90.1892C94.699 90.1892 94.5798 90.1792 94.4606 90.1792Z" fill="#936747"/>
<path d="M87.8055 89.7983C88.0935 89.8184 88.3915 89.8485 88.6796 89.8685C88.3915 89.8485 88.0935 89.8184 87.8055 89.7983Z" fill="#936747"/>
<path d="M91.1529 90.0391C91.3516 90.0491 91.5602 90.0591 91.7688 90.0691C91.5602 90.0591 91.3516 90.0491 91.1529 90.0391Z" fill="#936747"/>
<path d="M92.8514 90.1191C92.9806 90.1191 93.1097 90.1292 93.2388 90.1392C93.1097 90.1292 92.9806 90.1292 92.8514 90.1191Z" fill="#936747"/>
</g>
<defs>
<clipPath id="clip0_5_239">
<rect width="86" height="89" fill="white" transform="translate(56 6)"/>
</clipPath>
</defs>
</svg>
