<svg width="416" height="100" viewBox="0 0 416 100" fill="none" xmlns="http://www.w3.org/2000/svg">
<rect width="416" height="100" rx="20" fill="white"/>
<g clip-path="url(#clip0_5_241)">
<path d="M69.969 26.0248C69.0155 25.8885 68.9701 25.8431 69.4241 25.7977C70.2869 25.6615 72.2848 25.8431 73.6925 26.161C76.9618 26.9329 79.9133 28.9308 83.0464 32.4272L83.8638 33.3808L85.0444 33.1992C90.0846 32.3818 95.2611 33.0175 99.5748 35.0155C100.755 35.5604 102.617 36.6501 102.844 36.9226C102.935 37.0134 103.071 37.6037 103.162 38.194C103.48 40.3282 103.344 41.9174 102.663 43.1434C102.299 43.8245 102.299 44.0062 102.526 44.5965C102.708 45.0506 103.253 45.3684 103.752 45.3684C104.842 45.3684 105.977 43.6429 106.522 41.2363L106.749 40.2827L107.158 40.7368C109.474 43.3251 111.29 46.9123 111.562 49.4551L111.653 50.1362L111.245 49.5459C110.563 48.5015 109.928 47.8204 109.065 47.2301C107.521 46.1857 105.886 45.8679 101.573 45.6409C97.6677 45.4138 95.4427 45.096 93.2631 44.3694C89.5397 43.1434 87.6326 41.5542 83.2281 35.6966C81.2755 33.1083 80.0495 31.7007 78.8235 30.5201C76.1445 27.9319 73.4654 26.5696 69.969 26.0248Z" fill="black"/>
<path d="M103.798 31.7917C103.889 30.0662 104.116 28.9311 104.615 27.8867C104.797 27.478 104.978 27.1147 105.024 27.1147C105.069 27.1147 104.978 27.4326 104.842 27.7959C104.479 28.7948 104.433 30.2025 104.66 31.7917C104.978 33.8351 105.115 34.1075 107.294 36.3325C108.293 37.3769 109.474 38.6937 109.928 39.2386L110.7 40.2376L109.928 39.511C108.974 38.6029 106.795 36.8774 106.295 36.6503C105.977 36.4687 105.932 36.4687 105.705 36.6958C105.523 36.8774 105.478 37.1498 105.478 38.4667C105.432 40.51 105.16 41.7814 104.479 43.0982C104.116 43.7793 104.07 43.6431 104.388 42.8712C104.615 42.2809 104.66 42.0084 104.66 40.0559C104.66 36.1055 104.206 35.1519 101.437 33.5626C100.755 33.154 99.5748 32.5637 98.8937 32.2458C98.1672 31.928 97.6223 31.6555 97.6677 31.6555C97.7585 31.5647 100.438 32.3366 101.482 32.7907C103.071 33.4264 103.344 33.4718 103.525 33.4264C103.661 33.2902 103.752 32.9269 103.798 31.7917Z" fill="black"/>
<path d="M71.8308 38.5575C69.9237 35.9239 68.6977 31.8372 68.9701 28.7949L69.0609 27.8413L69.515 27.9321C70.3323 28.0683 71.74 28.6132 72.4211 29.0219C74.2374 30.1117 75.0547 31.6101 75.8267 35.3336C76.0537 36.4234 76.3715 37.6948 76.5078 38.1034C76.7348 38.7845 77.5976 40.3738 78.3241 41.3728C78.8236 42.0993 78.5057 42.4626 77.3705 42.3718C75.645 42.1901 73.3292 40.6009 71.8308 38.5575Z" fill="black"/>
<path d="M101.482 58.3098C92.4912 54.6772 89.3127 51.5441 89.3127 46.2314C89.3127 45.4594 89.3581 44.8237 89.3581 44.8237C89.4035 44.8237 89.7214 45.0962 90.13 45.414C91.9463 46.8671 93.9897 47.5028 99.6656 48.3201C102.98 48.8196 104.888 49.1829 106.613 49.7732C112.107 51.5895 115.513 55.3129 116.33 60.3531C116.557 61.8062 116.421 64.576 116.058 66.0291C115.74 67.1643 114.832 69.253 114.605 69.2984C114.559 69.2984 114.469 69.0714 114.469 68.7081C114.378 66.801 113.424 64.9847 111.835 63.5771C109.928 61.9424 107.476 60.7164 101.482 58.3098Z" fill="black"/>
<path d="M95.1249 59.808C95.0341 59.1268 94.807 58.2641 94.6708 57.9008L94.4438 57.2197L94.8524 57.7192C95.4427 58.4003 95.8968 59.2177 96.3055 60.3529C96.6233 61.2156 96.6233 61.488 96.6233 62.8957C96.6233 64.2579 96.5779 64.5758 96.3055 65.3477C95.8514 66.5737 95.3065 67.4364 94.3983 68.39C92.7637 70.0701 90.6295 70.9782 87.5872 71.3869C87.0423 71.4323 85.4985 71.5685 84.1362 71.6594C80.7306 71.841 78.4603 72.2042 76.4169 72.9308C76.1445 73.0216 75.872 73.1124 75.8266 73.067C75.7358 72.9762 77.1434 72.1588 78.2786 71.6139C79.8679 70.842 81.5026 70.4333 85.0898 69.7976C86.8607 69.5252 88.677 69.1619 89.1311 68.9803C93.6264 67.5727 95.8514 64.0763 95.1249 59.808Z" fill="black"/>
<path d="M99.257 67.1187C98.0764 64.5305 97.8039 62.0785 98.4396 59.7627C98.5305 59.5356 98.6213 59.3086 98.7121 59.3086C98.8029 59.3086 99.0753 59.4448 99.3478 59.6264C99.8927 59.9897 101.028 60.6254 103.934 62.2147C107.612 64.2126 109.701 65.7565 111.154 67.5274C112.425 69.0712 113.197 70.8421 113.56 73.0217C113.787 74.2477 113.651 77.1992 113.333 78.4252C112.334 82.2849 110.064 85.3726 106.749 87.1435C106.25 87.4159 105.841 87.5975 105.796 87.5975C105.75 87.5975 105.932 87.1435 106.204 86.5986C107.294 84.2828 107.43 82.0578 106.613 79.5604C106.114 78.0165 105.069 76.1548 102.98 73.0217C100.483 69.3891 99.8927 68.4355 99.257 67.1187Z" fill="black"/>
<path d="M65.4283 81.0133C68.7885 78.1981 72.9206 76.2001 76.7348 75.5644C78.3695 75.292 81.0939 75.3828 82.5924 75.7915C84.999 76.4272 87.1786 77.7894 88.3137 79.4695C89.4035 81.1042 89.903 82.5118 90.4025 85.6449C90.5841 86.8709 90.8112 88.1423 90.8566 88.4148C91.2198 90.0495 91.9464 91.3209 92.8545 92.002C94.2621 93.0464 96.7142 93.0918 99.1208 92.1836C99.5294 92.0474 99.8927 91.9112 99.8927 91.9566C99.9835 92.0474 98.7575 92.8647 97.9402 93.2734C96.805 93.8637 95.8968 94.0453 94.6708 94.0453C92.4912 94.0453 90.6295 92.9101 89.1311 90.6398C88.8132 90.1857 88.1775 88.8689 87.6326 87.6429C86.0434 83.9648 85.226 82.8751 83.3643 81.6491C81.7296 80.6047 79.6409 80.3776 78.0516 81.1496C75.9629 82.1485 75.418 84.8276 76.871 86.4623C77.4613 87.1434 78.5511 87.6883 79.4593 87.8245C81.1393 88.0515 82.5924 86.7347 82.5924 85.0546C82.5924 83.9648 82.1837 83.3291 81.0939 82.8296C79.6409 82.1939 78.0516 82.9205 78.097 84.3281C78.097 84.9184 78.3695 85.2817 78.9598 85.5541C79.323 85.7357 79.323 85.7357 79.0506 85.6903C77.7338 85.4179 77.4159 83.7832 78.4603 82.7388C79.7317 81.4674 82.4107 82.0123 83.3189 83.7832C83.6822 84.5097 83.7276 85.9628 83.4097 86.8709C82.6378 88.8689 80.4582 89.9132 78.2332 89.3229C76.7348 88.9143 76.0991 88.5056 74.2828 86.6439C71.1042 83.3745 69.8782 82.7388 65.3375 82.0577L64.4747 81.9215L65.4283 81.0133Z" fill="black"/>
<path fill-rule="evenodd" clip-rule="evenodd" d="M41.5448 7.95253C52.1248 20.8029 68.4261 40.7822 69.2434 41.872C69.9246 42.7802 69.6521 43.6429 68.5169 44.2786C67.8812 44.6419 66.5644 45.0052 65.9287 45.0052C65.2022 45.0052 64.3394 44.6419 63.7491 44.0516C63.3404 43.6429 61.5695 41.0547 57.5737 34.8338C54.5314 30.066 51.9431 26.1156 51.8977 26.0702C51.7161 25.9794 51.7161 25.9794 57.2558 35.8782C60.7522 42.0991 61.8874 44.324 61.8874 44.5965C61.8874 45.1868 61.7058 45.5046 60.9792 46.322C59.7532 47.6842 59.2084 49.2281 58.7997 52.452C58.3456 56.0392 57.1196 58.582 53.6232 62.8958C51.5799 65.4386 51.262 65.8927 50.7625 66.937C50.1268 68.2085 49.9452 68.935 49.8544 70.5697C49.7636 72.2951 49.9452 73.3849 50.4447 75.0196C50.8988 76.4726 51.3982 77.4262 52.6242 79.2879C53.6686 80.9226 54.3043 82.1486 54.3043 82.6027C54.3043 82.9659 54.3951 82.9659 56.0298 82.6027C59.9349 81.6945 63.1588 80.1507 64.9297 78.2436C66.0195 77.063 66.2919 76.4272 66.2919 74.7926C66.2919 73.7482 66.2465 73.5212 65.9741 72.8854C65.52 71.8865 64.6573 71.0691 62.7956 69.7977C60.3435 68.1176 59.2992 66.7554 59.0267 64.9391C58.7997 63.3953 59.0721 62.3509 60.4344 59.4902C61.842 56.5387 62.2053 55.3127 62.4323 52.3158C62.5685 50.4087 62.7956 49.6367 63.3404 49.0464C63.9307 48.4107 64.4302 48.1837 65.8379 48.0021C68.1537 47.6842 69.6521 47.0939 70.8327 45.9587C71.8771 45.0052 72.3312 44.0516 72.3766 42.644L72.422 41.5996L71.8317 40.9639C69.6975 38.5119 40.1371 6 40.0009 6C39.9555 6 40.682 6.86275 41.5448 7.95253ZM55.4849 72.5222C55.9844 71.6594 55.712 70.5697 54.8946 70.0248C54.1227 69.5253 52.9421 69.7523 52.9421 70.4334C52.9421 70.6151 53.0329 70.7967 53.3054 70.8875C53.714 71.1145 53.7594 71.3416 53.4416 71.8411C53.1237 72.3406 53.1237 72.7946 53.5324 73.1125C54.1681 73.612 55.0308 73.3395 55.4849 72.5222Z" fill="black"/>
<path fill-rule="evenodd" clip-rule="evenodd" d="M73.8741 48.6379C72.7843 48.9557 71.74 50.1363 71.4221 51.3169C71.2405 52.0434 71.3313 53.3602 71.6491 53.7689C72.1486 54.4046 72.6027 54.5863 73.8741 54.5863C76.3715 54.5863 78.5057 53.4965 78.7327 52.1796C78.9598 51.0899 78.0062 49.5914 76.6894 48.9103C76.0083 48.547 74.6006 48.4108 73.8741 48.6379ZM76.7802 50.9082C77.1435 50.3633 77.0072 49.773 76.3261 49.3644C75.1001 48.5924 73.2384 49.2282 73.2384 50.4088C73.2384 50.999 74.192 51.6348 75.1001 51.6348C75.6904 51.6348 76.5078 51.2715 76.7802 50.9082Z" fill="black"/>
</g>
<path d="M140.596 33.8151H157.727V34.7206H156.87C155.581 34.7206 154.692 34.8592 154.203 35.1366C153.729 35.3976 153.387 35.7647 153.175 36.2379C152.979 36.711 152.881 37.8939 152.881 39.7864V56.0363C152.881 59.0056 153.101 60.9716 153.542 61.9342C153.999 62.8968 154.741 63.6962 155.769 64.3325C156.797 64.9688 158.094 65.2869 159.66 65.2869C161.455 65.2869 162.98 64.8872 164.236 64.0878C165.509 63.272 166.455 62.1544 167.075 60.735C167.711 59.3156 168.03 56.8438 168.03 53.3198V39.7864C168.03 38.3017 167.875 37.2413 167.565 36.605C167.255 35.9687 166.863 35.5282 166.39 35.2834C165.656 34.9082 164.62 34.7206 163.282 34.7206V33.8151H174.76V34.7206H174.074C173.144 34.7206 172.369 34.9082 171.749 35.2834C171.129 35.6587 170.681 36.2216 170.403 36.9721C170.191 37.4941 170.085 38.4323 170.085 39.7864V52.3898C170.085 56.2891 169.824 59.1035 169.302 60.8329C168.796 62.5623 167.548 64.153 165.558 65.6051C163.567 67.0571 160.851 67.7831 157.408 67.7831C154.537 67.7831 152.318 67.3997 150.752 66.6329C148.615 65.5887 147.105 64.2509 146.224 62.6194C145.343 60.9879 144.903 58.7935 144.903 56.0363V39.7864C144.903 37.8775 144.797 36.6947 144.585 36.2379C144.373 35.7647 144.006 35.3895 143.484 35.1121C142.961 34.8348 141.999 34.7043 140.596 34.7206V33.8151ZM188.122 33.8151L204.494 54.3966V40.129C204.494 38.1386 204.208 36.7926 203.637 36.091C202.854 35.1448 201.541 34.6879 199.697 34.7206V33.8151H210.661V34.7206C209.258 34.9 208.312 35.1366 207.822 35.4303C207.349 35.7076 206.974 36.1726 206.696 36.8252C206.435 37.4615 206.305 38.5628 206.305 40.129V67.7587H205.473L183.031 40.129V61.2245C183.031 63.1333 183.464 64.4222 184.328 65.0911C185.209 65.7601 186.213 66.0945 187.339 66.0945H188.122V67H176.35V66.0945C178.178 66.0782 179.45 65.7029 180.168 64.9688C180.886 64.2346 181.245 62.9865 181.245 61.2245V37.8041L180.535 36.9231C179.834 36.0421 179.214 35.4629 178.675 35.1855C178.137 34.9082 177.362 34.7532 176.35 34.7206V33.8151H188.122ZM230.215 66.0945V67H212.863V66.0945H213.965C214.927 66.0945 215.702 65.9232 216.29 65.5806C216.714 65.3522 217.04 64.9606 217.269 64.4059C217.448 64.0143 217.538 62.9865 217.538 61.3223V39.4927C217.538 37.796 217.448 36.7355 217.269 36.3113C217.089 35.8871 216.722 35.52 216.167 35.21C215.629 34.8837 214.895 34.7206 213.965 34.7206H212.863V33.8151H230.215V34.7206H229.113C228.151 34.7206 227.376 34.8919 226.788 35.2345C226.364 35.4629 226.03 35.8545 225.785 36.4092C225.606 36.8007 225.516 37.8286 225.516 39.4927V61.3223C225.516 63.0191 225.606 64.0796 225.785 64.5038C225.981 64.928 226.348 65.3032 226.886 65.6295C227.441 65.9395 228.183 66.0945 229.113 66.0945H230.215ZM254.932 33.0564L255.201 44.1181H254.198C253.725 41.3445 252.558 39.1175 250.698 37.437C248.855 35.7403 246.856 34.8919 244.702 34.8919C243.038 34.8919 241.717 35.3405 240.738 36.2379C239.775 37.1189 239.294 38.1386 239.294 39.297C239.294 40.0311 239.465 40.6837 239.808 41.2548C240.281 42.0216 241.04 42.7802 242.084 43.5307C242.851 44.0691 244.621 45.0236 247.394 46.394C251.277 48.3029 253.896 50.1057 255.25 51.8025C256.588 53.4993 257.257 55.4407 257.257 57.627C257.257 60.4005 256.172 62.7907 254.002 64.7975C251.848 66.7879 249.108 67.7831 245.779 67.7831C244.735 67.7831 243.748 67.6771 242.818 67.465C241.888 67.2529 240.722 66.8532 239.318 66.2658C238.535 65.9395 237.891 65.7764 237.385 65.7764C236.961 65.7764 236.512 65.9395 236.039 66.2658C235.566 66.5921 235.183 67.0897 234.889 67.7587H233.983V55.2287H234.889C235.607 58.7527 236.985 61.4447 239.025 63.3046C241.08 65.1482 243.291 66.07 245.657 66.07C247.484 66.07 248.936 65.5724 250.013 64.5772C251.106 63.582 251.653 62.4236 251.653 61.1021C251.653 60.319 251.441 59.5603 251.016 58.8261C250.608 58.092 249.98 57.3986 249.132 56.746C248.284 56.077 246.783 55.2123 244.629 54.1519C241.611 52.6672 239.441 51.4028 238.119 50.3586C236.798 49.3144 235.778 48.1479 235.06 46.859C234.359 45.5701 234.008 44.1507 234.008 42.6008C234.008 39.9577 234.979 37.7062 236.92 35.8463C238.862 33.9864 241.309 33.0564 244.262 33.0564C245.339 33.0564 246.383 33.1869 247.394 33.448C248.161 33.6438 249.091 34.0109 250.184 34.5493C251.294 35.0713 252.069 35.3324 252.509 35.3324C252.933 35.3324 253.268 35.2019 253.513 34.9408C253.757 34.6798 253.986 34.0516 254.198 33.0564H254.932ZM308.968 33.8151V34.7206C308.348 34.7695 307.826 34.9408 307.401 35.2345C306.977 35.5282 306.602 35.9768 306.276 36.5805C306.178 36.7763 305.664 38.0407 304.734 40.3738L294.333 67.7587H293.379L285.156 46.3696L276.101 67.7587H275.195L264.281 40.6674C263.171 37.9428 262.396 36.295 261.956 35.7239C261.515 35.1529 260.773 34.8185 259.729 34.7206V33.8151H274.119V34.7206C272.96 34.7532 272.185 34.9327 271.794 35.259C271.418 35.569 271.231 35.9605 271.231 36.4337C271.231 37.0536 271.63 38.367 272.43 40.3738L278.94 56.4768L284.152 43.8978L282.782 40.3738C282.031 38.4486 281.452 37.1678 281.044 36.5315C280.636 35.8789 280.163 35.414 279.625 35.1366C279.103 34.8592 278.328 34.7206 277.3 34.7206V33.8151H293.379V34.7206C292.253 34.7369 291.445 34.8266 290.956 34.9898C290.613 35.104 290.344 35.2998 290.148 35.5771C289.952 35.8382 289.854 36.14 289.854 36.4826C289.854 36.8578 290.222 38.0081 290.956 39.9332L297 55.6447L302.409 41.4261C302.98 39.9577 303.331 38.9543 303.461 38.4159C303.592 37.8775 303.657 37.3799 303.657 36.9231C303.657 36.2542 303.429 35.7321 302.972 35.3569C302.515 34.9653 301.642 34.7532 300.353 34.7206V33.8151H308.968ZM330.259 57.5536H318.536L317.141 60.7839C316.685 61.8607 316.456 62.7499 316.456 63.4515C316.456 64.3814 316.831 65.0667 317.582 65.5072C318.022 65.7682 319.107 65.964 320.837 66.0945V67H309.8V66.0945C310.991 65.915 311.97 65.4256 312.736 64.6262C313.503 63.8104 314.449 62.1381 315.575 59.6093L327.444 33.1298H327.909L339.877 60.3434C341.019 62.9212 341.957 64.5446 342.691 65.2135C343.246 65.7193 344.029 66.0129 345.04 66.0945V67H328.986V66.0945H329.647C330.936 66.0945 331.841 65.915 332.363 65.5561C332.722 65.2951 332.902 64.9198 332.902 64.4304C332.902 64.1367 332.853 63.8349 332.755 63.5249C332.722 63.378 332.478 62.7662 332.021 61.6894L330.259 57.5536ZM329.427 55.7426L324.483 44.3138L319.393 55.7426H329.427ZM359.161 51.9738V61.1755C359.161 62.9702 359.267 64.1041 359.479 64.5772C359.708 65.034 360.099 65.4011 360.654 65.6785C361.225 65.9558 362.261 66.0945 363.762 66.0945V67H346.9V66.0945C348.434 66.0945 349.47 65.9558 350.008 65.6785C350.563 65.3848 350.946 65.0096 351.158 64.5527C351.387 64.0959 351.501 62.9702 351.501 61.1755V39.6396C351.501 37.8449 351.387 36.7192 351.158 36.2623C350.946 35.7892 350.563 35.414 350.008 35.1366C349.454 34.8592 348.418 34.7206 346.9 34.7206V33.8151H361.364C366.128 33.8151 369.546 34.6635 371.618 36.3602C373.69 38.057 374.726 40.178 374.726 42.7231C374.726 44.8767 374.057 46.7203 372.719 48.2539C371.381 49.7876 369.537 50.8317 367.188 51.3864C365.605 51.778 362.93 51.9738 359.161 51.9738ZM359.161 35.7239V50.0649C359.699 50.0976 360.107 50.1139 360.385 50.1139C362.375 50.1139 363.909 49.5265 364.986 48.3518C366.062 47.1608 366.601 45.3254 366.601 42.8455C366.601 40.3819 366.062 38.5791 364.986 37.437C363.909 36.295 362.302 35.7239 360.164 35.7239H359.161Z" fill="black"/>
<defs>
<clipPath id="clip0_5_241">
<rect width="76.4211" height="88" fill="white" transform="translate(40 6)"/>
</clipPath>
</defs>
</svg>
